<svg width="1440" height="1447" viewBox="0 0 1440 1447" fill="none" xmlns="http://www.w3.org/2000/svg">
<path d="M-5.19141 7.69083V1439.5M48.3342 7.69083V1439.5M101.86 7.69083V1439.5M155.385 7.69083V1439.5M208.911 7.69083V1439.5M262.437 7.69083V1439.5M315.962 7.69083V1439.5M369.488 7.69083V1439.5M423.013 7.69083V1439.5M476.539 7.69083V1439.5M530.065 7.69083V1439.5M583.59 7.69083V1439.5M637.116 7.69083V1439.5M690.641 7.69083V1439.5M744.167 7.69083V1439.5M797.693 7.69083V1439.5M851.218 7.69083V1439.5M904.744 7.69083V1439.5M958.27 7.69083V1439.5M1011.8 7.69083V1439.5M1065.32 7.69083V1439.5M1118.85 7.69083V1439.5M1172.37 7.69083V1439.5M1225.9 7.69083V1439.5M1279.42 7.69083V1439.5M1332.95 7.69083V1439.5M1386.47 7.69083V1439.5M1440 7.69083V1439.5M1433.31 1.00006L1.49923 1M1433.31 54.5257L1.49923 54.5256M1433.31 108.051L1.49922 108.051M1433.31 161.577L1.49922 161.577M1433.31 215.102L1.49922 215.102M1433.31 268.628L1.49922 268.628M1433.31 322.154L1.49922 322.154M1433.31 375.679L1.49921 375.679M1433.31 429.205L1.49921 429.205M1433.31 482.731L1.49921 482.73M1433.31 536.256L1.49921 536.256M1433.31 589.782L1.4992 589.782M1433.31 643.307L1.4992 643.307M1433.31 696.833L1.4992 696.833M1433.31 750.359L1.4992 750.359M1433.31 803.884L1.49919 803.884M1433.31 857.41L1.49919 857.41M1433.31 910.935L1.49919 910.935M1433.31 964.461L1.49919 964.461M1433.31 1017.99L1.49918 1017.99M1433.31 1071.51L1.49918 1071.51M1433.31 1125.04H1.49918M1433.31 1178.56H1.49918M1433.31 1232.09H1.49918M1433.31 1285.61H1.49917M1433.31 1339.14H1.49917M1433.31 1392.67H1.49917M1433.31 1446.19H1.49917" stroke="url(#paint0_linear_30_37)" stroke-opacity="0.5"/>
<defs>
<linearGradient id="paint0_linear_30_37" x1="717.404" y1="1" x2="717.404" y2="1446.19" gradientUnits="userSpaceOnUse">
<stop stop-color="white"/>
<stop offset="0.495" stop-color="#006EFF" stop-opacity="0.1"/>
<stop offset="1" stop-color="white"/>
</linearGradient>
</defs>
</svg>
