<svg width="1440" height="467" viewBox="0 0 1440 467" fill="none" xmlns="http://www.w3.org/2000/svg">
<path d="M1416.14 3.80647L1404.95 0.40625M1416.14 3.80647H1382.99M1416.14 3.80647L1427.69 7.31897M1416.14 3.80647H1439.61M1404.95 0.40625L1409.02 0.407576L1413.05 0.414938L1416.99 0.435638L1420.81 0.476407L1424.47 0.542566L1427.92 0.642152L1431.12 0.780487L1434.1 0.956899L1436.65 1.20084L1438.97 1.48352L1439.61 1.58254V3.80647M1404.95 0.40625H1372.33M1372.33 0.40625H1339.72M1372.33 0.40625L1382.99 3.80647M1339.72 0.40625H1307.1M1339.72 0.40625L1349.84 3.80647M1307.1 0.40625H1274.48M1307.1 0.40625L1316.69 3.80647M1274.48 0.40625H1241.87M1274.48 0.40625L1283.54 3.80647M1241.87 0.40625H1209.25M1241.87 0.40625L1250.39 3.80647M1209.25 0.40625H1176.63M1209.25 0.40625L1217.24 3.80647M1176.63 0.40625H1144.02M1176.63 0.40625L1184.09 3.80647M1144.02 0.40625H1111.4M1144.02 0.40625L1150.94 3.80647M1111.4 0.40625H1078.78M1111.4 0.40625L1117.79 3.80647M1078.78 0.40625H1046.17M1078.78 0.40625L1084.64 3.80647M1046.17 0.40625H1013.55M1046.17 0.40625L1051.49 3.80647M1013.55 0.40625H980.933M1013.55 0.40625L1014.73 1.24627L1016.53 2.51803L1018.34 3.80647M980.933 0.40625H948.317M980.933 0.40625L981.985 1.24627L985.194 3.80647M948.317 0.40625H915.7M948.317 0.40625L952.045 3.80647M915.7 0.40625H883.083M915.7 0.40625L916.886 1.66862L918.088 2.94572L918.491 3.37543L918.896 3.80647M883.083 0.40625H850.467M883.083 0.40625L884.072 1.66862L884.404 2.09232L884.738 2.51803L885.747 3.80647M850.467 0.40625H817.85M850.467 0.40625L852.598 3.80647M817.85 0.40625L818.047 0.825253L818.244 1.24627L819.245 3.37543L819.448 3.80647M817.85 0.40625H785.234M785.234 0.40625H752.616M785.234 0.40625L786.299 3.80647M752.616 0.40625H720M752.616 0.40625L752.814 1.66862L753.149 3.80647M720 0.40625H687.384M720 0.40625V3.80647M687.384 0.40625H654.766M687.384 0.40625L687.186 1.66862L686.851 3.80647M654.766 0.40625H622.15M654.766 0.40625L653.701 3.80647M622.15 0.40625L621.953 0.825253L621.756 1.24627L620.755 3.37543L620.552 3.80647M622.15 0.40625H589.534M589.534 0.40625H556.916M589.534 0.40625L587.673 3.37543L587.402 3.80647M556.916 0.40625H524.3M556.916 0.40625L555.928 1.66862L555.596 2.09232L554.927 2.94572L554.591 3.37543L554.253 3.80647M524.3 0.40625H491.683M524.3 0.40625L523.114 1.66862L521.913 2.94572L521.509 3.37543L521.104 3.80647M491.683 0.40625H459.067M491.683 0.40625L487.955 3.80647M459.067 0.40625H426.45M459.067 0.40625L458.015 1.24627L454.806 3.80647M426.45 0.40625H393.833M426.45 0.40625L421.656 3.80647M393.833 0.40625H361.217M393.833 0.40625L388.507 3.80647M361.217 0.40625H328.6M361.217 0.40625L355.357 3.80647M328.6 0.40625H295.983M328.6 0.40625L322.208 3.80647M295.983 0.40625H263.367M295.983 0.40625L289.059 3.80647M263.367 0.40625H230.751M263.367 0.40625L255.909 3.80647M230.751 0.40625H198.133M230.751 0.40625L222.76 3.80647M198.133 0.40625H165.517M198.133 0.40625L189.61 3.80647M165.517 0.40625H132.9M165.517 0.40625L156.461 3.80647M132.9 0.40625H100.283M132.9 0.40625L123.312 3.80647M100.283 0.40625H67.6668M100.283 0.40625L90.163 3.80647M67.6668 0.40625H35.0504M67.6668 0.40625L57.0136 3.80647M35.0504 0.40625L30.9801 0.407576L26.9517 0.414938L23.0074 0.435638L19.1867 0.476407L15.5316 0.542566L12.0812 0.642152L8.87672 0.780487L5.90232 0.956899L3.34995 1.20084L1.0262 1.48352L0.387546 1.58256V3.80647M35.0504 0.40625L23.8641 3.80647M90.163 3.80647H123.312M90.163 3.80647H57.0136M90.163 3.80647L79.7053 7.31897M123.312 3.80647L113.405 7.31897M123.312 3.80647H156.461M222.76 3.80647H255.909M222.76 3.80647H189.61M222.76 3.80647L220.722 4.6739L214.504 7.31897M255.909 3.80647L248.204 7.31897M255.909 3.80647H289.059M355.357 3.80647H388.507M355.357 3.80647H322.208M355.357 3.80647L353.863 4.6739L353.11 5.10963L349.303 7.31897M388.507 3.80647L387.828 4.23885L387.148 4.6739L383.003 7.31897M388.507 3.80647H421.656M487.955 3.80647L487.48 4.23885L484.102 7.31897M487.955 3.80647H521.104M487.955 3.80647H454.806M521.104 3.80647L520.289 4.6739L519.878 5.10963L519.467 5.54802L517.802 7.31897M521.104 3.80647H554.253M620.552 3.80647H653.701M620.552 3.80647H587.402M620.552 3.80647L618.901 7.31897M653.701 3.80647L653.566 4.23885L653.43 4.6739L653.293 5.10963L652.879 6.42949L652.601 7.31897M653.701 3.80647H686.851M753.149 3.80647H786.299M753.149 3.80647H720M753.149 3.80647L753.7 7.31897M786.299 3.80647L786.434 4.23885L786.57 4.6739L786.707 5.10963L787.399 7.31897M786.299 3.80647H819.448M885.747 3.80647H918.896M885.747 3.80647H852.598M885.747 3.80647L886.426 4.6739L887.802 6.42949L888.149 6.87323L888.499 7.31897M918.896 3.80647L919.711 4.6739L920.122 5.10963L920.534 5.54802L922.198 7.31897M918.896 3.80647H952.045M1018.34 3.80647H1051.49M1018.34 3.80647H985.194M1018.34 3.80647L1019.57 4.6739L1020.18 5.10963L1023.3 7.31897M1051.49 3.80647L1052.17 4.23885L1052.85 4.6739L1057 7.31897M1051.49 3.80647H1084.64M1150.94 3.80647H1184.09M1150.94 3.80647H1117.79M1150.94 3.80647L1152.71 4.6739L1153.6 5.10963L1158.1 7.31897M1184.09 3.80647L1191.8 7.31897M1184.09 3.80647H1217.24M1283.54 3.80647H1316.69M1283.54 3.80647H1250.39M1283.54 3.80647L1292.89 7.31897M1316.69 3.80647L1326.6 7.31897M1316.69 3.80647H1349.84M0.271359 35.6034H0.387546M33.6366 35.6034L46.2928 31.1159M33.6366 35.6034L20.4955 40.2627M33.6366 35.6034H71.7679M33.6366 35.6034H0.387546M46.2928 31.1159H8.86473M46.2928 31.1159L58.491 26.7907M46.2928 31.1159H83.7209M8.86473 31.1159L21.7405 26.7907M8.86473 31.1159H0.387546M8.86473 31.1159L0.387546 33.9628M46.1414 18.5936H81.6078M46.1414 18.5936L57.7137 14.7062M46.1414 18.5936H10.6758M46.1414 18.5936L34.1576 22.6193M81.6078 18.5936L92.5714 14.7062M81.6078 18.5936L70.2552 22.6193M81.6078 18.5936H117.074M57.7137 14.7062H92.5714M57.7137 14.7062L68.8954 10.9504M57.7137 14.7062H22.8567M92.5714 14.7062H127.428M92.5714 14.7062L103.164 10.9504M0.0224927 106.435H0.387546M30.7904 106.435L47.1106 98.9948M30.7904 106.435L13.6591 114.245M30.7904 106.435H80.0202M30.7904 106.435H0.387546M47.1106 98.9948L62.676 91.8989M47.1106 98.9948H95.174M47.1106 98.9948H0.387546M15.7243 91.8989H62.676M15.7243 91.8989L31.6472 85.1239M15.7243 91.8989H0.387546M15.7243 91.8989L0.387546 98.4245M46.8655 78.6482H91.7409M46.8655 78.6482L61.4257 72.4532M46.8655 78.6482H1.99018M46.8655 78.6482L31.6472 85.1239M91.7409 78.6482L105.331 72.4532M91.7409 78.6482L77.5368 85.1239M91.7409 78.6482H136.617M61.4257 72.4532H105.331M61.4257 72.4532H17.5211M61.4257 72.4532L75.3697 66.5202M105.331 72.4532L118.345 66.5202M105.331 72.4532H149.236M101.558 55.3772H142.787M101.558 55.3772L113.87 50.1386M101.558 55.3772H60.3283M101.558 55.3772L88.735 60.8331M142.787 55.3772L154.278 50.1386M142.787 55.3772L130.82 60.8331M142.787 55.3772H184.017M113.87 50.1386H154.278M113.87 50.1386H73.4612M113.87 50.1386L125.701 45.1044M154.278 50.1386L165.321 45.1044M154.278 50.1386H194.687M148.03 35.6034H186.162M148.03 35.6034L158.577 31.1159M148.03 35.6034H109.899M148.03 35.6034L137.079 40.2627M186.162 35.6034L196.005 31.1159M186.162 35.6034L175.941 40.2627M186.162 35.6034H224.293M158.577 31.1159H196.005M158.577 31.1159H121.149M158.577 31.1159L168.742 26.7907M196.005 31.1159L205.493 26.7907M196.005 31.1159H233.433M188.006 18.5936H223.473M188.006 18.5936L197.142 14.7062M188.006 18.5936H152.541M188.006 18.5936L178.546 22.6193M223.473 18.5936L231.999 14.7062M223.473 18.5936L214.642 22.6193M223.473 18.5936H258.939M197.142 14.7062H231.999M197.142 14.7062L205.97 10.9504M197.142 14.7062H162.285M231.999 14.7062H266.857M231.999 14.7062L240.239 10.9504M25.6092 235.423L48.5784 220.763M25.6092 235.423L1.01196 251.122M25.6092 235.423H95.0481M25.6092 235.423H0.387546M48.5784 220.763L70.0775 207.042M48.5784 220.763H115.72M48.5784 220.763H0.387546M48.1121 182.076H109.193M48.1121 182.076L67.7403 170.688M48.1121 182.076L27.2658 194.172M48.1121 182.076H0.387546M109.193 182.076L127.036 170.688M109.193 182.076L90.2417 194.172M109.193 182.076H170.274M67.7403 170.688H127.036M67.7403 170.688H8.44421M67.7403 170.688L86.2546 159.945M127.036 170.688L143.868 159.945M127.036 170.688H186.333M120.298 140.192H174.817M120.298 140.192L135.985 131.09M120.298 140.192H65.7801M120.298 140.192L103.746 149.796M174.817 140.192L189.077 131.09M174.817 140.192L159.769 149.796M174.817 140.192H229.335M135.985 131.09H189.077M135.985 131.09H82.8926M135.985 131.09L150.871 122.453M189.077 131.09L202.611 122.453M189.077 131.09H242.169M178.478 106.435H227.708M178.478 106.435L191.301 98.9948M178.478 106.435H129.249M178.478 106.435L165.018 114.245M227.708 106.435L239.365 98.9948M227.708 106.435L215.471 114.245M227.708 106.435H276.937M191.301 98.9948H239.365M191.301 98.9948H143.238M191.301 98.9948L203.531 91.8989M239.365 98.9948L250.483 91.8989M239.365 98.9948H287.428M226.368 78.6482H271.244M226.368 78.6482L237.046 72.4532M226.368 78.6482H181.492M226.368 78.6482L215.208 85.1239M271.244 78.6482L280.951 72.4532M271.244 78.6482L261.098 85.1239M271.244 78.6482H316.119M237.046 72.4532H280.951M237.046 72.4532H193.141M237.046 72.4532L247.271 66.5202M280.951 72.4532L290.247 66.5202M280.951 72.4532H324.856M266.476 55.3772H307.705M266.476 55.3772L275.504 50.1386M266.476 55.3772H225.246M266.476 55.3772L257.073 60.8331M307.705 55.3772L308.75 54.711L315.913 50.1386M307.705 55.3772L299.157 60.8331M307.705 55.3772H348.935M275.504 50.1386H315.913M275.504 50.1386H235.096M275.504 50.1386L284.181 45.1044M315.913 50.1386L323.801 45.1044M315.913 50.1386H356.322M300.555 35.6034H338.687M300.555 35.6034L308.29 31.1159M300.555 35.6034H262.424M300.555 35.6034L292.525 40.2627M338.687 35.6034L345.718 31.1159M338.687 35.6034L335.982 37.3302L331.386 40.2627M338.687 35.6034H376.818M308.29 31.1159H345.718M308.29 31.1159H270.862M308.29 31.1159L315.744 26.7907M345.718 31.1159L352.495 26.7907M345.718 31.1159H383.146M329.871 18.5936H365.338M329.871 18.5936L336.571 14.7062M329.871 18.5936H294.405M329.871 18.5936L322.934 22.6193M365.338 18.5936L369.926 15.6658L370.678 15.1847L371.429 14.7062M365.338 18.5936L359.03 22.6193M365.338 18.5936H400.804M336.571 14.7062H371.429M336.571 14.7062L343.045 10.9504M336.571 14.7062H301.714M371.429 14.7062H406.286M371.429 14.7062L377.313 10.9504M50.7679 402.422H146.373M50.7679 402.422L80.8717 374.974M50.7679 402.422L17.6882 432.583M50.7679 402.422L0.387546 402.422M146.373 402.422L172.176 374.974M146.373 402.422L118.019 432.583M146.373 402.422H241.977M80.8717 374.974H172.176M80.8717 374.974L108.384 349.889M80.8717 374.974H0.387546M172.176 374.974L195.758 349.889M172.176 374.974H263.48M156.866 305.685H237.314M156.866 305.685L178.334 286.11M156.866 305.685H76.4183M156.866 305.685L133.625 326.875M237.314 305.685L255.715 286.11M237.314 305.685L217.393 326.875M237.314 305.685H317.761M178.334 286.11H255.715M178.334 286.11H100.953M178.334 286.11L198.226 267.974M255.715 286.11L272.765 267.974M255.715 286.11H333.096M233.927 235.423H303.365M233.927 235.423L250.005 220.763M233.927 235.423H164.487M233.927 235.423L216.708 251.122M303.365 235.423L317.147 220.763M303.365 235.423L288.607 251.122M303.365 235.423H372.804M250.005 220.763H317.147M250.005 220.763H182.863M250.005 220.763L265.054 207.042M317.147 220.763L330.047 207.042M317.147 220.763H384.29M292.435 182.076H353.516M292.435 182.076L304.926 170.688M292.435 182.076H231.355M292.435 182.076L279.169 194.172M353.516 182.076L364.222 170.688M353.516 182.076L342.145 194.172M353.516 182.076H414.597M304.926 170.688H364.222M304.926 170.688H245.629M304.926 170.688L316.707 159.945M364.222 170.688L374.321 159.945M364.222 170.688H423.518M338.372 140.192H392.89M338.372 140.192L348.354 131.09M338.372 140.192H283.853M338.372 140.192L327.838 149.796M392.89 140.192L401.446 131.09M392.89 140.192L383.862 149.796M392.89 140.192H447.409M348.354 131.09H401.446M348.354 131.09H295.262M348.354 131.09L357.827 122.453M401.446 131.09L409.566 122.453M401.446 131.09H454.539M375.396 106.435H424.625M375.396 106.435L383.556 98.9948M375.396 106.435H326.166M375.396 106.435L366.83 114.245M424.625 106.435L431.619 98.9948M424.625 106.435L417.282 114.245M424.625 106.435H473.854M383.556 98.9948H431.619M383.556 98.9948H335.492M383.556 98.9948L391.338 91.8989M431.619 98.9948L438.29 91.8989M431.619 98.9948H479.682M405.87 78.6482H450.747M405.87 78.6482L412.666 72.4532M405.87 78.6482H360.995M405.87 78.6482L398.769 85.1239M450.747 78.6482L456.57 72.4532M450.747 78.6482L444.659 85.1239M450.747 78.6482H495.622M412.666 72.4532H456.57M412.666 72.4532H368.76M412.666 72.4532L419.173 66.5202M456.57 72.4532L462.148 66.5202M456.57 72.4532H500.476M431.393 55.3772H472.624M431.393 55.3772L437.139 50.1386M431.393 55.3772H390.164M431.393 55.3772L425.409 60.8331M472.624 55.3772L471.993 56.0469L467.494 60.8331M472.624 55.3772L477.548 50.1386M472.624 55.3772H513.853M437.139 50.1386H477.548M437.139 50.1386H396.731M437.139 50.1386L442.661 45.1044M477.548 50.1386L482.281 45.1044M477.548 50.1386H517.957M453.081 35.6034H491.212M453.081 35.6034L458.003 31.1159M453.081 35.6034H414.95M453.081 35.6034L447.971 40.2627M491.212 35.6034L495.431 31.1159M491.212 35.6034L489.589 37.3302L488.494 38.4951L486.832 40.2627M491.212 35.6034H529.343M458.003 31.1159H495.431M458.003 31.1159H420.575M458.003 31.1159L462.746 26.7907M495.431 31.1159L496.973 29.4752L497.99 28.394L499.497 26.7907M495.431 31.1159H532.859M471.737 18.5936H507.202M471.737 18.5936L474.948 15.6658L476 14.7062M471.737 18.5936H436.27M471.737 18.5936L467.882 22.1081L467.322 22.6193M507.202 18.5936L509.956 15.6658L510.407 15.1847L510.857 14.7062M507.202 18.5936L505.327 20.5884L503.418 22.6193M507.202 18.5936H542.669M476 14.7062H510.857M476 14.7062L480.119 10.9504M476 14.7062H441.143M510.857 14.7062H545.714M510.857 14.7062L514.388 10.9504M433.186 402.422H528.791M433.186 402.422L446.088 374.974M433.186 402.422H337.582M433.186 402.422L419.009 432.583M528.791 402.422L537.392 374.974M528.791 402.422L519.34 432.583M528.791 402.422H624.396M446.088 374.974H537.392M446.088 374.974H354.784M446.088 374.974L457.879 349.889M537.392 374.974L545.253 349.889M537.392 374.974H628.696M478.657 305.685H559.104M478.657 305.685L487.858 286.11M478.657 305.685H398.209M478.657 305.685L468.696 326.875M559.104 305.685L565.238 286.11M559.104 305.685L552.465 326.875M559.104 305.685H639.553M487.858 286.11H565.238M487.858 286.11H410.477M487.858 286.11L496.383 267.974M565.238 286.11L570.922 267.974M565.238 286.11H642.619M511.683 235.423H581.122M511.683 235.423L518.574 220.763M511.683 235.423H442.244M511.683 235.423L504.304 251.122M581.122 235.423L585.716 220.763M581.122 235.423L576.203 251.122M581.122 235.423H650.561M518.574 220.763H585.716M518.574 220.763H451.432M518.574 220.763L525.023 207.042M585.716 220.763L590.016 207.042M585.716 220.763H652.858M536.758 182.076H597.838M536.758 182.076L542.111 170.688M536.758 182.076H475.677M536.758 182.076L531.073 194.172M597.838 182.076L601.407 170.688M597.838 182.076L594.048 194.172M597.838 182.076H658.919M542.111 170.688H601.407M542.111 170.688H482.815M542.111 170.688L547.16 159.945M601.407 170.688L604.774 159.945M601.407 170.688H660.704M556.445 140.192H610.964M556.445 140.192L560.723 131.09M556.445 140.192H501.927M556.445 140.192L551.931 149.796M610.964 140.192L613.815 131.09M610.964 140.192L607.954 149.796M610.964 140.192H665.482M560.723 131.09H613.815M560.723 131.09H507.631M560.723 131.09L564.783 122.453M613.815 131.09L616.522 122.453M613.815 131.09H666.908M572.312 106.435H621.541M572.312 106.435L575.809 98.9948M572.312 106.435H523.083M572.312 106.435L568.642 114.245M621.541 106.435L623.873 98.9948M621.541 106.435L619.094 114.245M621.541 106.435H670.771M575.809 98.9948H623.873M575.809 98.9948H527.746M575.809 98.9948L577.079 96.2949L579.145 91.8989M623.873 98.9948L626.097 91.8989M623.873 98.9948H671.937M585.373 78.6482H630.249M585.373 78.6482L588.285 72.4532M585.373 78.6482H540.497M585.373 78.6482L583.104 83.4779L582.329 85.1239M630.249 78.6482L630.987 76.2932L632.19 72.4532M630.249 78.6482L628.219 85.1239M630.249 78.6482H675.125M588.285 72.4532L588.64 71.6974L591.074 66.5202M588.285 72.4532H632.19M588.285 72.4532H544.38M632.19 72.4532L632.897 70.1985L633.129 69.4546L633.362 68.7155L634.049 66.5202M632.19 72.4532H676.095M596.311 55.3772H637.541M596.311 55.3772L597.555 52.7315L597.862 52.0786L598.167 51.4284L598.472 50.7821L598.774 50.1386M596.311 55.3772H555.082M596.311 55.3772L593.747 60.8331M637.541 55.3772L638.778 51.4284L638.981 50.7821L639.182 50.1386M637.541 55.3772L635.832 60.8331M637.541 55.3772H678.771M598.774 50.1386H639.182M598.774 50.1386H558.365M598.774 50.1386L600.264 46.9689L600.557 46.3441L601.14 45.1044M639.182 50.1386L640.176 46.9689L640.372 46.3441L640.566 45.7226L640.76 45.1044M639.182 50.1386H679.592M605.606 35.6034H643.738M605.606 35.6034L607.716 31.1159M605.606 35.6034H567.474M605.606 35.6034L605.066 36.7515L604.247 38.4951L603.416 40.2627M643.738 35.6034L643.558 36.1761L642.463 39.6706L642.277 40.2627M643.738 35.6034L645.144 31.1159M643.738 35.6034H681.869M607.716 31.1159H645.144M607.716 31.1159H570.288M607.716 31.1159L609.749 26.7907M645.144 31.1159L645.658 29.4752L645.827 28.9333L645.997 28.394L646.499 26.7907M645.144 31.1159H682.572M613.602 18.5936H649.067M613.602 18.5936L614.978 15.6658L615.428 14.7062M613.602 18.5936H578.135M613.602 18.5936L612.899 20.0865L612.664 20.5884L612.426 21.093L611.709 22.6193M649.067 18.5936L649.222 18.1004L649.529 17.12L649.834 16.1483L650.285 14.7062M649.067 18.5936L648.442 20.5884L648.285 21.093L647.966 22.1081L647.806 22.6193M649.067 18.5936H684.534M615.428 14.7062H650.285M615.428 14.7062L616.976 11.4129L617.194 10.9504M615.428 14.7062H580.571M650.285 14.7062L650.435 14.2297L650.584 13.7552L650.732 13.2827L650.879 12.8123L651.318 11.4129L651.463 10.9504M650.285 14.7062H685.143M815.604 402.422H911.209M815.604 402.422L811.304 374.974M815.604 402.422H720M815.604 402.422L820.33 432.583M911.209 402.422L902.608 374.974M911.209 402.422L920.66 432.583M911.209 402.422H1006.81M811.304 374.974H902.608M811.304 374.974H720M811.304 374.974L807.374 349.889M902.608 374.974L894.747 349.889M902.608 374.974H993.912M800.447 305.685H880.896M800.447 305.685L797.381 286.11M800.447 305.685H720M800.447 305.685L803.768 326.875M880.896 305.685L874.762 286.11M880.896 305.685L887.536 326.875M880.896 305.685H961.343M797.381 286.11H874.762M797.381 286.11H720M797.381 286.11L794.539 267.974M874.762 286.11L869.078 267.974M874.762 286.11H952.142M789.439 235.423H858.878M789.439 235.423L787.142 220.763M789.439 235.423H720M789.439 235.423L791.899 251.122M858.878 235.423L854.284 220.763M858.878 235.423L863.797 251.122M858.878 235.423H928.317M787.142 220.763H854.284M787.142 220.763H720M787.142 220.763L784.992 207.042M854.284 220.763L849.985 207.042M854.284 220.763H921.426M781.081 182.076H842.162M781.081 182.076L779.296 170.688M781.081 182.076H720M781.081 182.076L782.976 194.172M842.162 182.076L838.593 170.688M842.162 182.076L845.952 194.172M842.162 182.076H903.242M779.296 170.688H838.593M779.296 170.688H720M779.296 170.688L777.613 159.945M838.593 170.688L835.226 159.945M838.593 170.688H897.889M774.518 140.192H829.036M774.518 140.192L773.092 131.09M774.518 140.192H720M774.518 140.192L776.023 149.796M829.036 140.192L826.185 131.09M829.036 140.192L832.046 149.796M829.036 140.192H883.555M773.092 131.09H826.185M773.092 131.09H720M773.092 131.09L771.739 122.453M826.185 131.09L823.478 122.453M826.185 131.09H879.277M769.229 106.435H818.459M769.229 106.435L768.063 98.9948M769.229 106.435H720M769.229 106.435L770.453 114.245M818.459 106.435L816.127 98.9948M818.459 106.435L820.906 114.245M818.459 106.435H867.688M768.063 98.9948H816.127M768.063 98.9948H720M768.063 98.9948L766.952 91.8989M816.127 98.9948L813.903 91.8989M816.127 98.9948H864.191M764.875 78.6482H809.751M764.875 78.6482L763.905 72.4532M764.875 78.6482H720M764.875 78.6482L765.89 85.1239M809.751 78.6482L808.048 73.2131L807.81 72.4532M809.751 78.6482L811.781 85.1239M809.751 78.6482H854.627M763.905 72.4532L763.787 71.6974L762.975 66.5202M763.905 72.4532H807.81M763.905 72.4532H720M807.81 72.4532L807.103 70.1985L806.871 69.4546L806.638 68.7155L805.951 66.5202M807.81 72.4532H851.715M761.229 55.3772H802.459M761.229 55.3772L760.409 50.1386M761.229 55.3772H720M761.229 55.3772L761.546 57.3968L761.653 58.0771L761.759 58.7608L761.975 60.1388L762.085 60.8331M802.459 55.3772L801.222 51.4284L800.817 50.1386M802.459 55.3772L804.168 60.8331M802.459 55.3772H843.689M760.409 50.1386H800.817M760.409 50.1386H720M760.409 50.1386L759.62 45.1044M800.817 50.1386L799.825 46.9689L799.628 46.3441L799.434 45.7226L799.24 45.1044M800.817 50.1386H841.226M758.131 35.6034H796.262M758.131 35.6034L757.428 31.1159M758.131 35.6034H720M758.131 35.6034L758.861 40.2627M796.262 35.6034L796.442 36.1761L797.537 39.6706L797.723 40.2627M796.262 35.6034L794.856 31.1159M796.262 35.6034H834.394M757.428 31.1159H794.856M757.428 31.1159H720M757.428 31.1159L756.751 26.7907M794.856 31.1159L794.342 29.4752L794.173 28.9333L794.003 28.394L793.501 26.7907M794.856 31.1159H832.284M755.467 18.5936H790.933M755.467 18.5936L754.857 14.7062M755.467 18.5936H720M755.467 18.5936L756.097 22.6193M790.933 18.5936L790.778 18.1004L790.47 17.12L790.318 16.6328L790.015 15.6658L789.865 15.1847L789.714 14.7062M790.933 18.5936L791.558 20.5884L791.715 21.093L792.034 22.1081L792.194 22.6193M790.933 18.5936H826.399M754.857 14.7062L754.783 14.2297L754.708 13.7552L754.634 13.2827L754.269 10.9504M754.857 14.7062H789.714M754.857 14.7062H720M789.714 14.7062H824.572M789.714 14.7062L789.416 13.7552L789.268 13.2827L789.121 12.8123L788.683 11.4129L788.537 10.9504M1198.02 402.422H1293.63M1198.02 402.422L1176.52 374.974M1198.02 402.422H1102.42M1198.02 402.422L1221.65 432.583M1293.63 402.422L1267.82 374.974M1293.63 402.422L1321.98 432.583M1293.63 402.422H1389.23M1176.52 374.974H1267.82M1176.52 374.974H1085.22M1176.52 374.974L1156.87 349.889M1267.82 374.974L1244.24 349.889M1267.82 374.974H1359.13M1122.24 305.685H1202.69M1122.24 305.685L1106.9 286.11M1122.24 305.685H1041.79M1122.24 305.685L1138.84 326.875M1202.69 305.685L1184.29 286.11M1202.69 305.685L1222.61 326.875M1202.69 305.685H1283.13M1106.9 286.11H1184.29M1106.9 286.11H1029.52M1106.9 286.11L1092.7 267.974M1184.29 286.11L1167.23 267.974M1184.29 286.11H1261.67M1067.2 235.423H1136.63M1067.2 235.423L1055.71 220.763M1067.2 235.423H997.756M1067.2 235.423L1079.49 251.122M1136.63 235.423L1122.85 220.763M1136.63 235.423L1151.39 251.122M1136.63 235.423H1206.07M1055.71 220.763H1122.85M1055.71 220.763H988.568M1055.71 220.763L1044.96 207.042M1122.85 220.763L1109.95 207.042M1122.85 220.763H1189.99M1025.4 182.076H1086.48M1025.4 182.076L1016.48 170.688M1025.4 182.076H964.323M1025.4 182.076L1034.88 194.172M1086.48 182.076L1075.78 170.688M1086.48 182.076L1097.86 194.172M1086.48 182.076H1147.57M1016.48 170.688H1075.78M1016.48 170.688H957.185M1016.48 170.688L1008.07 159.945M1075.78 170.688L1065.68 159.945M1075.78 170.688H1135.07M992.591 140.192H1047.11M992.591 140.192L985.461 131.09M992.591 140.192H938.073M992.591 140.192L1000.12 149.796M1047.11 140.192L1038.55 131.09M1047.11 140.192L1056.14 149.796M1047.11 140.192H1101.63M985.461 131.09H1038.55M985.461 131.09H932.369M985.461 131.09L978.695 122.453M1038.55 131.09L1030.43 122.453M1038.55 131.09H1091.65M966.146 106.435H1015.38M966.146 106.435L960.318 98.9948M966.146 106.435H916.917M966.146 106.435L972.265 114.245M1015.38 106.435L1008.38 98.9948M1015.38 106.435L1022.72 114.245M1015.38 106.435H1064.6M960.318 98.9948H1008.38M960.318 98.9948H912.254M960.318 98.9948L954.759 91.8989M1008.38 98.9948L1001.71 91.8989M1008.38 98.9948H1056.44M944.378 78.6482L945 79.4422L945.626 80.2401L949.451 85.1239M944.378 78.6482H989.254M944.378 78.6482L939.525 72.4532M944.378 78.6482H899.503M989.254 78.6482L983.43 72.4532M989.254 78.6482L995.341 85.1239M989.254 78.6482H1034.13M939.525 72.4532H983.43M939.525 72.4532H895.62M939.525 72.4532L934.877 66.5202M983.43 72.4532L977.852 66.5202M983.43 72.4532H1027.33M926.147 55.3772H967.377M926.147 55.3772L922.043 50.1386M926.147 55.3772H884.918M926.147 55.3772L930.421 60.8331M967.377 55.3772L964.275 52.0786L962.452 50.1386M967.377 55.3772L972.506 60.8331M967.377 55.3772H1008.61M922.043 50.1386H962.452M922.043 50.1386H881.635M922.043 50.1386L918.585 45.7226L918.1 45.1044M962.452 50.1386L957.72 45.1044M962.452 50.1386H1002.86M910.657 35.6034H948.788M910.657 35.6034L909.766 34.4653L907.141 31.1159M910.657 35.6034H872.526M910.657 35.6034L911.556 36.7515L913.382 39.0811L914.307 40.2627M948.788 35.6034L944.569 31.1159M948.788 35.6034L950.411 37.3302L951.506 38.4951L953.168 40.2627M948.788 35.6034H986.919M907.141 31.1159H944.569M907.141 31.1159H869.712M907.141 31.1159L904.588 27.8567L903.752 26.7907M944.569 31.1159L943.027 29.4752L942.01 28.394L940.503 26.7907M944.569 31.1159H981.997M897.331 18.5936H932.798M897.331 18.5936L895.415 16.1483L894.286 14.7062M897.331 18.5936H861.865M897.331 18.5936L900.485 22.6193M932.798 18.5936L930.044 15.6658L929.593 15.1847L929.143 14.7062M932.798 18.5936L934.673 20.5884L936.582 22.6193M932.798 18.5936H968.263M894.286 14.7062H929.143M894.286 14.7062L892.802 12.8123L892.07 11.8773L891.706 11.4129L891.344 10.9504M894.286 14.7062H859.429M929.143 14.7062H964M929.143 14.7062L925.612 10.9504M1416.43 286.11H1339.05M1416.43 286.11L1390.85 267.974M1416.43 286.11H1439.61M1416.43 286.11L1439.61 302.552M1344.95 235.423H1414.39M1344.95 235.423L1324.28 220.763M1344.95 235.423H1275.51M1344.95 235.423L1367.09 251.122M1414.39 235.423L1391.42 220.763M1414.39 235.423L1438.99 251.122M1414.39 235.423H1439.61M1324.28 220.763H1391.42M1324.28 220.763H1257.14M1324.28 220.763L1304.93 207.042M1391.42 220.763L1369.92 207.042M1391.42 220.763H1439.61M1269.73 182.076H1330.81M1269.73 182.076L1253.67 170.688M1269.73 182.076H1208.65M1269.73 182.076L1286.78 194.172M1330.81 182.076L1312.96 170.688M1330.81 182.076L1349.76 194.172M1330.81 182.076H1391.89M1253.67 170.688H1312.96M1253.67 170.688H1194.37M1253.67 170.688L1238.52 159.945M1312.96 170.688L1296.13 159.945M1312.96 170.688H1372.26M1210.66 140.192H1265.18M1210.66 140.192L1197.83 131.09M1210.66 140.192H1156.15M1210.66 140.192L1224.21 149.796M1265.18 140.192L1250.92 131.09M1265.18 140.192L1280.23 149.796M1265.18 140.192H1319.7M1197.83 131.09H1250.92M1197.83 131.09H1144.74M1197.83 131.09L1185.65 122.453M1250.92 131.09L1237.39 122.453M1250.92 131.09H1304.02M1163.06 106.435H1212.29M1163.06 106.435L1152.57 98.9948M1163.06 106.435H1113.83M1163.06 106.435L1174.08 114.245M1212.29 106.435L1200.64 98.9948M1212.29 106.435L1224.53 114.245M1212.29 106.435H1261.52M1152.57 98.9948H1200.64M1152.57 98.9948H1104.51M1152.57 98.9948L1142.57 91.8989M1200.64 98.9948L1189.52 91.8989M1200.64 98.9948H1248.7M1123.88 78.6482H1168.76M1123.88 78.6482L1115.14 72.4532M1123.88 78.6482H1079M1123.88 78.6482L1133.01 85.1239M1168.76 78.6482L1159.05 72.4532M1168.76 78.6482L1178.9 85.1239M1168.76 78.6482H1213.63M1115.14 72.4532H1159.05M1115.14 72.4532H1071.24M1115.14 72.4532L1106.78 66.5202M1159.05 72.4532L1149.75 66.5202M1159.05 72.4532H1202.95M1091.07 55.3772H1132.29M1091.07 55.3772L1083.68 50.1386M1091.07 55.3772H1049.84M1091.07 55.3772L1098.76 60.8331M1132.29 55.3772L1124.09 50.1386M1132.29 55.3772L1140.84 60.8331M1132.29 55.3772H1173.52M1083.68 50.1386H1124.09M1083.68 50.1386H1043.27M1083.68 50.1386L1076.58 45.1044M1124.09 50.1386L1116.2 45.1044M1124.09 50.1386H1164.5M1063.18 35.6034H1101.31M1063.18 35.6034L1056.85 31.1159M1063.18 35.6034H1025.05M1063.18 35.6034L1064.8 36.7515L1065.62 37.3302L1069.75 40.2627M1101.31 35.6034L1094.28 31.1159M1101.31 35.6034L1108.61 40.2627M1101.31 35.6034H1139.44M1056.85 31.1159H1094.28M1056.85 31.1159H1019.43M1056.85 31.1159L1050.75 26.7907M1094.28 31.1159L1087.51 26.7907M1094.28 31.1159H1131.71M1039.2 18.5936H1074.66M1039.2 18.5936L1033.71 14.7062M1039.2 18.5936H1003.73M1039.2 18.5936L1044.87 22.6193M1074.66 18.5936L1070.07 15.6658L1069.32 15.1847L1068.57 14.7062M1074.66 18.5936L1080.97 22.6193M1074.66 18.5936H1110.13M1033.71 14.7062H1068.57M1033.71 14.7062L1029.07 11.4129L1028.42 10.9504M1033.71 14.7062H998.857M1068.57 14.7062H1103.43M1068.57 14.7062L1062.69 10.9504M1428.74 140.192L1410.2 131.09M1428.74 140.192H1374.22M1428.74 140.192L1439.61 145.531M1428.74 140.192H1439.61M1410.2 131.09H1357.11M1410.2 131.09L1392.61 122.453M1410.2 131.09H1439.61M1359.98 106.435H1409.21M1359.98 106.435L1344.83 98.9948M1359.98 106.435H1310.75M1359.98 106.435L1375.89 114.245M1409.21 106.435L1392.89 98.9948M1409.21 106.435L1426.34 114.245M1409.21 106.435H1439.61M1344.83 98.9948H1392.89M1344.83 98.9948H1296.76M1344.83 98.9948L1330.37 91.8989M1392.89 98.9948L1377.32 91.8989M1392.89 98.9948H1439.61M1303.38 78.6482H1348.26M1303.38 78.6482L1290.76 72.4532M1303.38 78.6482H1258.51M1303.38 78.6482L1316.57 85.1239M1348.26 78.6482L1334.67 72.4532M1348.26 78.6482L1362.46 85.1239M1348.26 78.6482H1393.13M1290.76 72.4532H1334.67M1290.76 72.4532H1246.86M1290.76 72.4532L1278.68 66.5202M1334.67 72.4532L1321.66 66.5202M1334.67 72.4532H1378.57M1255.98 55.3772H1297.21M1255.98 55.3772L1245.31 50.1386M1255.98 55.3772H1214.75M1255.98 55.3772L1267.1 60.8331M1297.21 55.3772L1285.72 50.1386M1297.21 55.3772L1309.18 60.8331M1297.21 55.3772H1338.44M1245.31 50.1386H1285.72M1245.31 50.1386H1204.9M1245.31 50.1386L1235.06 45.1044M1285.72 50.1386L1274.68 45.1044M1285.72 50.1386H1326.13M1215.71 35.6034H1253.84M1215.71 35.6034L1206.57 31.1159M1215.71 35.6034H1177.58M1215.71 35.6034L1225.2 40.2627M1253.84 35.6034L1243.99 31.1159M1253.84 35.6034L1264.06 40.2627M1253.84 35.6034H1291.97M1206.57 31.1159H1243.99M1206.57 31.1159H1169.14M1206.57 31.1159L1197.76 26.7907M1243.99 31.1159L1234.51 26.7907M1243.99 31.1159H1281.42M1181.06 18.5936H1216.53M1181.06 18.5936L1173.14 14.7062M1181.06 18.5936H1145.59M1181.06 18.5936L1189.26 22.6193M1216.53 18.5936L1208 14.7062M1216.53 18.5936L1225.36 22.6193M1216.53 18.5936H1251.99M1173.14 14.7062H1208M1173.14 14.7062L1165.49 10.9504M1173.14 14.7062H1138.29M1208 14.7062H1242.86M1208 14.7062L1199.76 10.9504M1420.9 55.3772L1406.95 50.1386M1420.9 55.3772H1379.67M1420.9 55.3772L1435.43 60.8331M1420.9 55.3772H1439.61M1406.95 50.1386H1366.54M1406.95 50.1386L1393.54 45.1044M1406.95 50.1386H1439.61M1368.23 35.6034H1406.36M1368.23 35.6034L1356.28 31.1159M1368.23 35.6034H1330.1M1368.23 35.6034L1380.64 40.2627M1406.36 35.6034L1393.71 31.1159M1406.36 35.6034L1419.5 40.2627M1406.36 35.6034H1439.61M1356.28 31.1159H1393.71M1356.28 31.1159H1318.85M1356.28 31.1159L1344.76 26.7907M1393.71 31.1159L1381.51 26.7907M1393.71 31.1159H1431.14M1322.93 18.5936H1358.39M1322.93 18.5936L1312.57 14.7062M1322.93 18.5936H1287.46M1322.93 18.5936L1333.65 22.6193M1358.39 18.5936L1347.43 14.7062M1358.39 18.5936L1369.74 22.6193M1358.39 18.5936H1393.86M1312.57 14.7062H1347.43M1312.57 14.7062L1302.57 10.9504M1312.57 14.7062H1277.71M1347.43 14.7062H1382.29M1347.43 14.7062L1336.84 10.9504M1369.74 22.6193L1381.51 26.7907M1369.74 22.6193H1405.84M1369.74 22.6193H1333.65M1393.86 18.5936L1382.29 14.7062M1393.86 18.5936L1405.84 22.6193M1393.86 18.5936H1429.32M1382.29 14.7062H1417.14M1382.29 14.7062L1371.1 10.9504M1336.84 10.9504H1302.57M1336.84 10.9504H1371.1M1336.84 10.9504L1326.6 7.31897M1405.84 22.6193L1418.26 26.7907M1405.84 22.6193H1439.61M1429.32 18.5936L1417.14 14.7062M1429.32 18.5936L1439.61 21.8765M1429.32 18.5936H1439.61M1417.14 14.7062L1405.37 10.9504M1417.14 14.7062H1439.61M1371.1 10.9504H1405.37M1371.1 10.9504L1360.29 7.31897M1405.37 10.9504L1393.99 7.31897M1405.37 10.9504H1439.61M1381.51 26.7907H1418.26M1381.51 26.7907H1344.76M1431.14 31.1159L1418.26 26.7907M1431.14 31.1159L1439.61 33.9628M1431.14 31.1159H1439.61M1418.26 26.7907H1439.61M1344.76 26.7907H1308.01M1344.76 26.7907L1333.65 22.6193M1333.65 22.6193H1297.55M1419.5 40.2627L1433.16 45.1044M1419.5 40.2627H1380.64M1419.5 40.2627H1439.61M1439.73 35.6034H1439.61M1433.16 45.1044H1393.54M1433.16 45.1044L1439.61 47.3926M1433.16 45.1044H1439.61M1393.54 45.1044H1353.92M1393.54 45.1044L1380.64 40.2627M1380.64 40.2627H1341.78M1225.36 22.6193L1234.51 26.7907M1225.36 22.6193H1261.45M1225.36 22.6193H1189.26M1251.99 18.5936L1242.86 14.7062M1251.99 18.5936L1261.45 22.6193M1251.99 18.5936H1287.46M1242.86 14.7062H1277.71M1242.86 14.7062L1234.03 10.9504M1199.76 10.9504H1234.03M1199.76 10.9504L1191.8 7.31897M1199.76 10.9504H1165.49M1261.45 22.6193L1271.26 26.7907M1261.45 22.6193H1297.55M1287.46 18.5936L1277.71 14.7062M1287.46 18.5936L1297.55 22.6193M1277.71 14.7062L1268.3 10.9504M1234.03 10.9504H1268.3M1234.03 10.9504L1225.5 7.31897M1297.55 22.6193L1308.01 26.7907M1302.57 10.9504H1268.3M1302.57 10.9504L1292.89 7.31897M1268.3 10.9504L1259.2 7.31897M1234.51 26.7907H1271.26M1234.51 26.7907H1197.76M1281.42 31.1159L1271.26 26.7907M1281.42 31.1159L1291.97 35.6034M1281.42 31.1159H1318.85M1271.26 26.7907H1308.01M1197.76 26.7907H1161.01M1197.76 26.7907L1189.26 22.6193M1308.01 26.7907L1318.85 31.1159M1189.26 22.6193H1153.16M1291.97 35.6034L1302.92 40.2627M1291.97 35.6034H1330.1M1318.85 31.1159L1330.1 35.6034M1330.1 35.6034L1341.78 40.2627M1264.06 40.2627L1274.68 45.1044M1264.06 40.2627H1302.92M1264.06 40.2627H1225.2M1302.92 40.2627L1314.3 45.1044M1302.92 40.2627H1341.78M1341.78 40.2627L1353.92 45.1044M1274.68 45.1044H1314.3M1274.68 45.1044H1235.06M1326.13 50.1386L1314.3 45.1044M1326.13 50.1386L1338.44 55.3772M1326.13 50.1386H1366.54M1314.3 45.1044H1353.92M1235.06 45.1044H1195.44M1235.06 45.1044L1225.2 40.2627M1353.92 45.1044L1366.54 50.1386M1225.2 40.2627H1186.34M1338.44 55.3772L1351.27 60.8331M1338.44 55.3772H1379.67M1366.54 50.1386L1379.67 55.3772M1379.67 55.3772L1393.35 60.8331M1309.18 60.8331L1321.66 66.5202M1309.18 60.8331H1351.27M1309.18 60.8331H1267.1M1351.27 60.8331L1364.63 66.5202M1351.27 60.8331H1393.35M1393.35 60.8331L1407.61 66.5202M1393.35 60.8331H1435.43M1435.43 60.8331H1439.61M1435.43 60.8331L1439.61 62.4018M1321.66 66.5202H1364.63M1321.66 66.5202H1278.68M1378.57 72.4532L1364.63 66.5202M1378.57 72.4532L1393.13 78.6482M1378.57 72.4532H1422.48M1364.63 66.5202H1407.61M1278.68 66.5202H1235.7M1278.68 66.5202L1267.1 60.8331M1407.61 66.5202L1422.48 72.4532M1407.61 66.5202H1439.61M1267.1 60.8331H1225.01M1393.13 78.6482L1408.35 85.1239M1393.13 78.6482H1438.01M1422.48 72.4532L1438.01 78.6482M1422.48 72.4532H1439.61M1439.84 66.5202H1439.61M1438.01 78.6482L1439.61 79.2876M1438.01 78.6482H1439.61M1362.46 85.1239L1377.32 91.8989M1362.46 85.1239H1408.35M1362.46 85.1239H1316.57M1408.35 85.1239L1424.28 91.8989M1408.35 85.1239H1439.61M1440 79.4422L1439.61 79.2876M1377.32 91.8989H1424.28M1377.32 91.8989H1330.37M1424.28 91.8989H1439.61M1424.28 91.8989L1439.61 98.4245M1330.37 91.8989H1283.42M1330.37 91.8989L1316.57 85.1239M1316.57 85.1239H1270.68M1426.34 114.245H1375.89M1426.34 114.245L1439.61 120.295M1426.34 114.245H1439.61M1439.98 106.435H1439.61M1375.89 114.245H1325.43M1375.89 114.245L1392.61 122.453M1439.76 120.362L1439.61 120.295M1080.97 22.6193L1087.51 26.7907M1080.97 22.6193H1117.07M1080.97 22.6193H1044.87M1110.13 18.5936L1103.43 14.7062M1110.13 18.5936L1117.07 22.6193M1110.13 18.5936H1145.59M1103.43 14.7062H1138.29M1103.43 14.7062L1096.96 10.9504M1062.69 10.9504H1096.96M1062.69 10.9504L1060.53 9.57443L1057 7.31897M1062.69 10.9504H1028.42M1117.07 22.6193L1124.26 26.7907M1117.07 22.6193H1153.16M1145.59 18.5936L1138.29 14.7062M1145.59 18.5936L1153.16 22.6193M1138.29 14.7062L1131.22 10.9504M1096.96 10.9504H1131.22M1096.96 10.9504L1090.7 7.31897M1153.16 22.6193L1161.01 26.7907M1165.49 10.9504L1158.1 7.31897M1165.49 10.9504H1131.22M1131.22 10.9504L1130.36 10.4893L1128.64 9.57443L1124.4 7.31897M1087.51 26.7907H1124.26M1087.51 26.7907H1050.75M1131.71 31.1159L1124.26 26.7907M1131.71 31.1159L1139.44 35.6034M1131.71 31.1159H1169.14M1124.26 26.7907H1161.01M1050.75 26.7907H1014M1050.75 26.7907L1044.87 22.6193M1161.01 26.7907L1169.14 31.1159M1044.87 22.6193H1008.78M1139.44 35.6034L1147.48 40.2627M1139.44 35.6034H1177.58M1169.14 31.1159L1170.18 31.6672L1177.58 35.6034M1177.58 35.6034L1186.34 40.2627M1108.61 40.2627L1109.55 40.8581L1116.2 45.1044M1108.61 40.2627H1147.48M1108.61 40.2627H1069.75M1147.48 40.2627L1155.82 45.1044M1147.48 40.2627H1186.34M1186.34 40.2627L1195.44 45.1044M1116.2 45.1044H1155.82M1116.2 45.1044H1076.58M1164.5 50.1386L1155.82 45.1044M1164.5 50.1386L1173.52 55.3772M1164.5 50.1386H1204.9M1155.82 45.1044H1195.44M1076.58 45.1044H1036.96M1076.58 45.1044L1069.75 40.2627M1195.44 45.1044L1204.9 50.1386M1069.75 40.2627H1030.89M1173.52 55.3772L1182.93 60.8331M1173.52 55.3772H1214.75M1204.9 50.1386L1214.75 55.3772M1214.75 55.3772L1225.01 60.8331M1140.84 60.8331L1149.75 66.5202M1140.84 60.8331H1182.93M1140.84 60.8331H1098.76M1182.93 60.8331L1192.73 66.5202M1182.93 60.8331H1225.01M1225.01 60.8331L1235.7 66.5202M1149.75 66.5202H1192.73M1149.75 66.5202H1106.78M1202.95 72.4532L1192.73 66.5202M1202.95 72.4532L1213.63 78.6482M1202.95 72.4532H1246.86M1192.73 66.5202H1235.7M1106.78 66.5202H1063.8M1106.78 66.5202L1098.76 60.8331M1235.7 66.5202L1246.86 72.4532M1098.76 60.8331H1056.67M1213.63 78.6482L1224.79 85.1239M1213.63 78.6482H1258.51M1246.86 72.4532L1258.51 78.6482M1258.51 78.6482L1270.68 85.1239M1178.9 85.1239L1189.52 91.8989M1178.9 85.1239H1224.79M1178.9 85.1239H1133.01M1224.79 85.1239L1236.47 91.8989M1224.79 85.1239H1270.68M1270.68 85.1239L1283.42 91.8989M1189.52 91.8989H1236.47M1189.52 91.8989H1142.57M1248.7 98.9948L1236.47 91.8989M1248.7 98.9948L1261.52 106.435M1248.7 98.9948H1296.76M1236.47 91.8989H1283.42M1142.57 91.8989H1095.61M1142.57 91.8989L1133.01 85.1239M1283.42 91.8989L1296.76 98.9948M1133.01 85.1239H1087.12M1261.52 106.435L1274.98 114.245M1261.52 106.435H1310.75M1296.76 98.9948L1310.75 106.435M1310.75 106.435L1325.43 114.245M1224.53 114.245L1237.39 122.453M1224.53 114.245H1274.98M1224.53 114.245H1174.08M1274.98 114.245L1289.13 122.453M1274.98 114.245H1325.43M1325.43 114.245L1340.87 122.453M1237.39 122.453H1289.13M1237.39 122.453H1185.65M1304.02 131.09L1289.13 122.453M1304.02 131.09L1319.7 140.192M1304.02 131.09H1357.11M1289.13 122.453H1340.87M1185.65 122.453H1133.91M1185.65 122.453L1174.08 114.245M1340.87 122.453L1357.11 131.09M1340.87 122.453H1392.61M1174.08 114.245H1123.62M1319.7 140.192L1336.25 149.796M1319.7 140.192H1374.22M1357.11 131.09L1374.22 140.192M1392.61 122.453H1439.61M1374.22 140.192L1392.28 149.796M1280.23 149.796L1296.13 159.945M1280.23 149.796H1336.25M1280.23 149.796H1224.21M1336.25 149.796L1353.75 159.945M1336.25 149.796H1392.28M1392.28 149.796L1411.36 159.945M1392.28 149.796H1439.61M1296.13 159.945H1353.75M1296.13 159.945H1238.52M1372.26 170.688L1353.75 159.945M1372.26 170.688L1391.89 182.076M1372.26 170.688H1431.56M1353.75 159.945H1411.36M1238.52 159.945H1180.91M1238.52 159.945L1224.21 149.796M1411.36 159.945L1431.56 170.688M1411.36 159.945H1439.61M1224.21 149.796H1168.18M1391.89 182.076L1412.73 194.172M1391.89 182.076H1439.61M1431.56 170.688H1439.61M1431.56 170.688L1439.61 174.972M1349.76 194.172L1369.92 207.042M1349.76 194.172H1412.73M1349.76 194.172H1286.78M1412.73 194.172L1434.91 207.042M1412.73 194.172H1439.61M1369.92 207.042H1434.91M1369.92 207.042H1304.93M1434.91 207.042L1439.61 209.767M1434.91 207.042H1439.61M1304.93 207.042H1239.94M1304.93 207.042L1286.78 194.172M1286.78 194.172H1223.81M1438.99 251.122H1367.09M1438.99 251.122H1439.61M1438.99 251.122L1439.61 251.52M1367.09 251.122H1295.19M1367.09 251.122L1390.85 267.974M936.582 22.6193L938.036 24.1657L938.525 24.6863L940.503 26.7907M936.582 22.6193H972.679M936.582 22.6193H900.485M968.263 18.5936L965.052 15.6658L964 14.7062M968.263 18.5936L972.119 22.1081L972.679 22.6193M968.263 18.5936H1003.73M964 14.7062H998.857M964 14.7062L959.881 10.9504M925.612 10.9504H959.881M925.612 10.9504L924.318 9.57443L922.198 7.31897M925.612 10.9504H891.344M972.679 22.6193L973.807 23.6478L977.254 26.7907M972.679 22.6193H1008.78M1003.73 18.5936L998.857 14.7062M1003.73 18.5936L1008.78 22.6193M998.857 14.7062L995.311 11.8773L994.149 10.9504M959.881 10.9504H994.149M959.881 10.9504L955.898 7.31897M1008.78 22.6193L1014 26.7907M1028.42 10.9504L1027.77 10.4893L1023.3 7.31897M1028.42 10.9504H994.149M994.149 10.9504L992.424 9.57443L989.598 7.31897M940.503 26.7907H977.254M940.503 26.7907H903.752M981.997 31.1159L977.254 26.7907M981.997 31.1159L986.919 35.6034M981.997 31.1159H1019.43M977.254 26.7907H1014M903.752 26.7907H867.002M903.752 26.7907L900.485 22.6193M1014 26.7907L1019.43 31.1159M900.485 22.6193H864.388M986.919 35.6034L990.09 38.4951L990.734 39.0811L992.029 40.2627M986.919 35.6034H1025.05M1019.43 31.1159L1025.05 35.6034M1025.05 35.6034L1030.89 40.2627M953.168 40.2627L957.72 45.1044M953.168 40.2627H992.029M953.168 40.2627H914.307M992.029 40.2627L997.339 45.1044M992.029 40.2627H1030.89M1030.89 40.2627L1036.96 45.1044M957.72 45.1044H997.339M957.72 45.1044H918.1M1002.86 50.1386L999.384 46.9689L998.7 46.3441L997.339 45.1044M1002.86 50.1386L1008.61 55.3772M1002.86 50.1386H1043.27M997.339 45.1044H1036.96M918.1 45.1044H878.48M918.1 45.1044L914.307 40.2627M1036.96 45.1044L1043.27 50.1386M914.307 40.2627H875.445M1008.61 55.3772L1014.59 60.8331M1008.61 55.3772H1049.84M1043.27 50.1386L1049.84 55.3772M1049.84 55.3772L1056.67 60.8331M972.506 60.8331L975.151 63.6466L975.821 64.3597L977.852 66.5202M972.506 60.8331H1014.59M972.506 60.8331H930.421M1014.59 60.8331L1020.83 66.5202M1014.59 60.8331H1056.67M1056.67 60.8331L1063.8 66.5202M977.852 66.5202H1020.83M977.852 66.5202H934.877M1027.33 72.4532L1020.83 66.5202M1027.33 72.4532L1034.13 78.6482M1027.33 72.4532H1071.24M1020.83 66.5202H1063.8M934.877 66.5202H891.901M934.877 66.5202L933.745 65.0761L930.421 60.8331M1063.8 66.5202L1071.24 72.4532M930.421 60.8331H888.338M1034.13 78.6482L1041.23 85.1239M1034.13 78.6482H1079M1071.24 72.4532L1079 78.6482M1079 78.6482L1087.12 85.1239M995.341 85.1239L1001.71 91.8989M995.341 85.1239H1041.23M995.341 85.1239H949.451M1041.23 85.1239L1048.66 91.8989M1041.23 85.1239H1087.12M1087.12 85.1239L1095.61 91.8989M1001.71 91.8989H1048.66M1001.71 91.8989H954.759M1056.44 98.9948L1048.66 91.8989M1056.44 98.9948L1064.6 106.435M1056.44 98.9948H1104.51M1048.66 91.8989H1095.61M954.759 91.8989H907.807M954.759 91.8989L949.451 85.1239M1095.61 91.8989L1104.51 98.9948M949.451 85.1239H903.561M1064.6 106.435L1073.17 114.245M1064.6 106.435H1113.83M1104.51 98.9948L1113.83 106.435M1113.83 106.435L1123.62 114.245M1022.72 114.245L1030.43 122.453M1022.72 114.245H1073.17M1022.72 114.245H972.265M1073.17 114.245L1082.17 122.453M1073.17 114.245H1123.62M1123.62 114.245L1133.91 122.453M1030.43 122.453H1082.17M1030.43 122.453H978.695M1091.65 131.09L1082.17 122.453M1091.65 131.09L1101.63 140.192M1091.65 131.09H1144.74M1082.17 122.453H1133.91M978.695 122.453H926.956M978.695 122.453L972.265 114.245M1133.91 122.453L1144.74 131.09M972.265 114.245H921.812M1101.63 140.192L1112.16 149.796M1101.63 140.192H1156.15M1144.74 131.09L1156.15 140.192M1156.15 140.192L1168.18 149.796M1056.14 149.796L1065.68 159.945M1056.14 149.796H1112.16M1056.14 149.796H1000.12M1112.16 149.796L1123.29 159.945M1112.16 149.796H1168.18M1168.18 149.796L1180.91 159.945M1065.68 159.945H1123.29M1065.68 159.945H1008.07M1135.07 170.688L1123.29 159.945M1135.07 170.688L1147.57 182.076M1135.07 170.688H1194.37M1123.29 159.945H1180.91M1008.07 159.945H950.453M1008.07 159.945L1000.12 149.796M1180.91 159.945L1194.37 170.688M1000.12 149.796H944.093M1147.57 182.076L1160.83 194.172M1147.57 182.076H1208.65M1194.37 170.688L1208.65 182.076M1208.65 182.076L1223.81 194.172M1097.86 194.172L1109.95 207.042M1097.86 194.172H1160.83M1097.86 194.172H1034.88M1160.83 194.172L1174.95 207.042M1160.83 194.172H1223.81M1223.81 194.172L1239.94 207.042M1109.95 207.042H1174.95M1109.95 207.042H1044.96M1189.99 220.763L1174.95 207.042M1189.99 220.763L1206.07 235.423M1189.99 220.763H1257.14M1174.95 207.042H1239.94M1044.96 207.042H979.969M1044.96 207.042L1034.88 194.172M1239.94 207.042L1257.14 220.763M1034.88 194.172H971.903M1206.07 235.423L1223.29 251.122M1206.07 235.423H1275.51M1257.14 220.763L1275.51 235.423M1275.51 235.423L1295.19 251.122M1151.39 251.122L1167.23 267.974M1151.39 251.122H1223.29M1151.39 251.122H1079.49M1223.29 251.122L1241.77 267.974M1223.29 251.122H1295.19M1295.19 251.122L1316.31 267.974M1167.23 267.974H1241.77M1167.23 267.974H1092.7M1261.67 286.11L1241.77 267.974M1261.67 286.11L1283.13 305.685M1261.67 286.11H1339.05M1241.77 267.974H1316.31M1092.7 267.974H1018.16M1092.7 267.974L1079.49 251.122M1316.31 267.974L1339.05 286.11M1316.31 267.974H1390.85M1079.49 251.122H1007.6M1283.13 305.685L1306.37 326.875M1283.13 305.685H1363.58M1339.05 286.11L1363.58 305.685M1390.85 267.974H1439.61M1363.58 305.685L1390.14 326.875M1363.58 305.685H1439.61M1222.61 326.875L1244.24 349.889M1222.61 326.875H1306.37M1222.61 326.875H1138.84M1306.37 326.875L1331.62 349.889M1306.37 326.875H1390.14M1390.14 326.875L1418.99 349.889M1390.14 326.875H1439.61M1244.24 349.889H1331.62M1244.24 349.889H1156.87M1359.13 374.974L1331.62 349.889M1359.13 374.974L1389.23 402.422M1359.13 374.974H1439.61M1331.62 349.889H1418.99M1156.87 349.889H1069.49M1156.87 349.889L1138.84 326.875M1418.99 349.889H1439.61M1418.99 349.889L1439.61 366.342M1138.84 326.875H1055.07M1389.23 402.422L1422.31 432.583M1389.23 402.422H1439.61M1321.98 432.583L1353.28 465.882M1321.98 432.583H1422.31M1321.98 432.583H1221.65M1422.31 432.583L1439.61 448.358M1422.31 432.583H1439.61M1353.28 465.882H1247.74M1353.28 465.882L1439.61 465.881M1247.74 465.882H1142.19M1247.74 465.882L1221.65 432.583M1221.65 432.583H1121.32M792.194 22.6193L792.355 23.1326L792.516 23.6478L792.679 24.1657L792.841 24.6863L793.335 26.2608L793.501 26.7907M792.194 22.6193H828.291M792.194 22.6193H756.097M826.399 18.5936L825.022 15.6658L824.572 14.7062M826.399 18.5936L827.574 21.093L828.291 22.6193M826.399 18.5936H861.865M824.572 14.7062H859.429M824.572 14.7062L823.242 11.8773L822.806 10.9504M788.537 10.9504L788.393 10.4893L787.822 8.66623L787.399 7.31897M788.537 10.9504H822.806M788.537 10.9504H754.269M828.291 22.6193L828.532 23.1326L828.775 23.6478L829.018 24.1657L829.263 24.6863L830.251 26.7907M828.291 22.6193H864.388M861.865 18.5936L860.03 15.6658L859.429 14.7062M861.865 18.5936L864.388 22.6193M859.429 14.7062L858.241 12.8123L857.364 11.4129L857.075 10.9504M822.806 10.9504L822.59 10.4893L822.16 9.57443L821.732 8.66623L821.521 8.21514L821.099 7.31897M822.806 10.9504H857.075M864.388 22.6193L866.34 25.7335L867.002 26.7907M891.344 10.9504L889.201 8.21514L888.499 7.31897M891.344 10.9504H857.075M857.075 10.9504L855.08 7.76606L854.798 7.31897M793.501 26.7907H830.251M793.501 26.7907H756.751M832.284 31.1159L830.251 26.7907M832.284 31.1159L834.394 35.6034M832.284 31.1159H869.712M830.251 26.7907H867.002M756.751 26.7907H720M756.751 26.7907L756.097 22.6193M867.002 26.7907L869.712 31.1159M756.097 22.6193H720M834.394 35.6034L834.934 36.7515L835.753 38.4951L836.584 40.2627M834.394 35.6034H872.526M869.712 31.1159L870.059 31.6672L872.526 35.6034M872.526 35.6034L872.884 36.1761L873.245 36.7515L873.607 37.3302L875.445 40.2627M797.723 40.2627L799.24 45.1044M797.723 40.2627H836.584M797.723 40.2627H758.861M836.584 40.2627L838.86 45.1044M836.584 40.2627H875.445M875.445 40.2627L877.71 43.8761L878.094 44.4889L878.48 45.1044M799.24 45.1044H838.86M799.24 45.1044H759.62M841.226 50.1386L841.528 50.7821L841.833 51.4284L842.138 52.0786L843.689 55.3772M841.226 50.1386L840.031 47.5964L839.736 46.9689L839.443 46.3441L838.86 45.1044M841.226 50.1386H881.635M838.86 45.1044H878.48M759.62 45.1044H720M759.62 45.1044L758.861 40.2627M878.48 45.1044L881.635 50.1386M758.861 40.2627H720M843.689 55.3772L845.927 60.1388L846.253 60.8331M843.689 55.3772H884.918M881.635 50.1386L882.444 51.4284L884.918 55.3772M884.918 55.3772L886.184 57.3968L888.338 60.8331M804.168 60.8331L805.051 63.6466L805.273 64.3597L805.951 66.5202M804.168 60.8331H846.253M804.168 60.8331H762.085M846.253 60.8331L848.926 66.5202M846.253 60.8331H888.338M888.338 60.8331L891.901 66.5202M805.951 66.5202H848.926M805.951 66.5202H762.975M851.715 72.4532L848.926 66.5202M851.715 72.4532L854.627 78.6482M851.715 72.4532H895.62M848.926 66.5202H891.901M762.975 66.5202H720M762.975 66.5202L762.749 65.0761L762.304 62.2325L762.085 60.8331M891.901 66.5202L895.62 72.4532M762.085 60.8331H720M854.627 78.6482L856.897 83.4779L857.671 85.1239M854.627 78.6482H899.503M895.62 72.4532L899.503 78.6482M899.503 78.6482L901.509 81.85L903.561 85.1239M811.781 85.1239L813.903 91.8989M811.781 85.1239H857.671M811.781 85.1239H765.89M857.671 85.1239L860.855 91.8989M857.671 85.1239H903.561M903.561 85.1239L907.807 91.8989M813.903 91.8989H860.855M813.903 91.8989H766.952M864.191 98.9948L863.342 97.1897L860.855 91.8989M864.191 98.9948L867.688 106.435M864.191 98.9948H912.254M860.855 91.8989H907.807M766.952 91.8989H720M766.952 91.8989L765.89 85.1239M907.807 91.8989L912.254 98.9948M765.89 85.1239H720M867.688 106.435L871.359 114.245M867.688 106.435H916.917M912.254 98.9948L916.917 106.435M916.917 106.435L921.812 114.245M820.906 114.245L823.478 122.453M820.906 114.245H871.359M820.906 114.245H770.453M871.359 114.245L875.217 122.453M871.359 114.245H921.812M921.812 114.245L926.956 122.453M823.478 122.453H875.217M823.478 122.453H771.739M879.277 131.09L875.217 122.453M879.277 131.09L883.555 140.192M879.277 131.09H932.369M875.217 122.453H926.956M771.739 122.453H720M771.739 122.453L770.61 115.249L770.453 114.245M926.956 122.453L932.369 131.09M770.453 114.245H720M883.555 140.192L888.069 149.796M883.555 140.192H938.073M932.369 131.09L936.618 137.872L938.073 140.192M938.073 140.192L944.093 149.796M832.046 149.796L835.226 159.945M832.046 149.796H888.069M832.046 149.796H776.023M888.069 149.796L892.84 159.945M888.069 149.796H944.093M944.093 149.796L950.453 159.945M835.226 159.945H892.84M835.226 159.945H777.613M897.889 170.688L892.84 159.945M897.889 170.688L903.242 182.076M897.889 170.688H957.185M892.84 159.945H950.453M777.613 159.945H720M777.613 159.945L776.023 149.796M950.453 159.945L957.185 170.688M776.023 149.796H720M903.242 182.076L908.927 194.172M903.242 182.076H964.323M957.185 170.688L964.323 182.076M964.323 182.076L971.903 194.172M845.952 194.172L849.985 207.042M845.952 194.172H908.927M845.952 194.172H782.976M908.927 194.172L914.977 207.042M908.927 194.172H971.903M971.903 194.172L979.969 207.042M849.985 207.042H914.977M849.985 207.042H784.992M921.426 220.763L914.977 207.042M921.426 220.763L928.317 235.423M921.426 220.763H988.568M914.977 207.042H979.969M784.992 207.042H720M784.992 207.042L782.976 194.172M979.969 207.042L988.568 220.763M782.976 194.172H720M928.317 235.423L935.696 251.122M928.317 235.423H997.756M988.568 220.763L997.756 235.423M997.756 235.423L1007.6 251.122M863.797 251.122L869.078 267.974M863.797 251.122H935.696M863.797 251.122H791.899M935.696 251.122L943.617 267.974M935.696 251.122H1007.6M1007.6 251.122L1018.16 267.974M869.078 267.974H943.617M869.078 267.974H794.539M952.142 286.11L943.617 267.974M952.142 286.11L961.343 305.685M952.142 286.11H1029.52M943.617 267.974H1018.16M794.539 267.974H720M794.539 267.974L791.899 251.122M1018.16 267.974L1029.52 286.11M791.899 251.122H720M961.343 305.685L971.304 326.875M961.343 305.685H1041.79M1029.52 286.11L1041.79 305.685M1041.79 305.685L1055.07 326.875M887.536 326.875L894.747 349.889M887.536 326.875H971.304M887.536 326.875H803.768M971.304 326.875L982.121 349.889M971.304 326.875H1055.07M1055.07 326.875L1069.49 349.889M894.747 349.889H982.121M894.747 349.889H807.374M993.912 374.974L982.121 349.889M993.912 374.974L1006.81 402.422M993.912 374.974H1085.22M982.121 349.889H1069.49M807.374 349.889H720M807.374 349.889L803.768 326.875M1069.49 349.889L1085.22 374.974M803.768 326.875H720M1006.81 402.422L1020.99 432.583M1006.81 402.422H1102.42M1085.22 374.974L1102.42 402.422M1102.42 402.422L1121.32 432.583M920.66 432.583L931.095 465.882M920.66 432.583H1020.99M920.66 432.583H820.33M1020.99 432.583L1036.64 465.882M1020.99 432.583H1121.32M1121.32 432.583L1142.19 465.882M1036.64 465.882H931.095M1036.64 465.882H1142.19M931.095 465.882H825.548M825.548 465.882H720M825.548 465.882L820.33 432.583M820.33 432.583H720M647.806 22.6193L647.645 23.1326L647.484 23.6478L647.321 24.1657L647.159 24.6863L646.83 25.7335L646.665 26.2608L646.499 26.7907M647.806 22.6193H683.903M647.806 22.6193H611.709M684.534 18.5936L685.143 14.7062M684.534 18.5936L683.903 22.6193M684.534 18.5936H720M685.143 14.7062L685.217 14.2297L685.292 13.7552L685.366 13.2827L685.732 10.9504M685.143 14.7062H720M651.463 10.9504L651.607 10.4893L652.178 8.66623L652.601 7.31897M651.463 10.9504H685.732M651.463 10.9504H617.194M683.903 22.6193L683.822 23.1326L683.742 23.6478L683.66 24.1657L683.25 26.7907M683.903 22.6193H720M720 18.5936V14.7062M720 18.5936V22.6193M720 14.7062V10.9504M685.732 10.9504H720M685.732 10.9504L685.947 9.57443L686.019 9.11933L686.3 7.31897M720 22.6193V26.7907M754.269 10.9504L754.054 9.57443L753.982 9.11933L753.911 8.66623L753.84 8.21514L753.77 7.76606L753.7 7.31897M754.269 10.9504H720M720 10.9504V7.31897M646.499 26.7907H683.25M646.499 26.7907H609.749M682.572 31.1159L682.485 31.6672L682.399 32.2219L681.869 35.6034M682.572 31.1159L683.25 26.7907M682.572 31.1159H720M683.25 26.7907H720M609.749 26.7907H572.998M609.749 26.7907L610.245 25.7335L610.492 25.2089L610.737 24.6863L610.983 24.1657L611.225 23.6478L611.468 23.1326L611.709 22.6193M720 26.7907V31.1159M611.709 22.6193H575.612M681.869 35.6034L681.139 40.2627M681.869 35.6034H720M720 31.1159V35.6034M720 35.6034V40.2627M642.277 40.2627L640.76 45.1044M642.277 40.2627H681.139M642.277 40.2627H603.416M681.139 40.2627L680.38 45.1044M681.139 40.2627H720M720 40.2627V45.1044M640.76 45.1044H680.38M640.76 45.1044H601.14M679.592 50.1386L680.38 45.1044M679.592 50.1386L678.771 55.3772M679.592 50.1386H720M680.38 45.1044H720M601.14 45.1044H561.52M601.14 45.1044L603.416 40.2627M720 45.1044V50.1386M603.416 40.2627H564.555M678.771 55.3772L678.454 57.3968L678.133 59.4478L677.915 60.8331M678.771 55.3772H720M720 50.1386V55.3772M720 55.3772V60.8331M635.832 60.8331L634.949 63.6466L634.727 64.3597L634.049 66.5202M635.832 60.8331H677.915M635.832 60.8331H593.747M677.915 60.8331L677.697 62.2325L677.251 65.0761L677.025 66.5202M677.915 60.8331H720M720 60.8331V66.5202M634.049 66.5202H677.025M634.049 66.5202H591.074M676.095 72.4532L676.213 71.6974L677.025 66.5202M676.095 72.4532L675.125 78.6482M676.095 72.4532H720M677.025 66.5202H720M591.074 66.5202H548.099M591.074 66.5202L593.747 60.8331M720 66.5202V72.4532M593.747 60.8331H551.662M675.125 78.6482L674.11 85.1239M675.125 78.6482H720M720 72.4532V78.6482M720 78.6482V85.1239M628.219 85.1239L626.097 91.8989M628.219 85.1239H674.11M628.219 85.1239H582.329M674.11 85.1239L673.048 91.8989M674.11 85.1239H720M720 85.1239V91.8989M626.097 91.8989H673.048M626.097 91.8989H579.145M671.937 98.9948L673.048 91.8989M671.937 98.9948L670.771 106.435M671.937 98.9948H720M673.048 91.8989H720M579.145 91.8989H532.193M579.145 91.8989L582.329 85.1239M720 91.8989V98.9948M582.329 85.1239H536.439M670.771 106.435L669.547 114.245M670.771 106.435H720M720 98.9948V106.435M720 106.435V114.245M619.094 114.245L616.522 122.453M619.094 114.245H669.547M619.094 114.245H568.642M669.547 114.245L668.261 122.453M669.547 114.245H720M720 114.245V122.453M616.522 122.453H668.261M616.522 122.453H564.783M666.908 131.09L668.261 122.453M666.908 131.09L665.482 140.192M666.908 131.09H720M668.261 122.453H720M564.783 122.453H513.044M564.783 122.453L568.642 114.245M720 122.453V131.09M568.642 114.245H518.188M665.482 140.192L663.977 149.796M665.482 140.192H720M720 131.09V140.192M720 140.192V149.796M607.954 149.796L604.774 159.945M607.954 149.796H663.977M607.954 149.796H551.931M663.977 149.796L662.387 159.945M663.977 149.796H720M720 149.796V159.945M604.774 159.945H662.387M604.774 159.945H547.16M660.704 170.688L662.387 159.945M660.704 170.688L658.919 182.076M660.704 170.688H720M662.387 159.945H720M547.16 159.945H489.547M547.16 159.945L551.931 149.796M720 159.945V170.688M551.931 149.796H495.907M658.919 182.076L657.024 194.172M658.919 182.076H720M720 170.688V182.076M720 182.076V194.172M594.048 194.172L590.016 207.042M594.048 194.172H657.024M594.048 194.172H531.073M657.024 194.172L655.008 207.042M657.024 194.172H720M720 194.172V207.042M590.016 207.042H655.008M590.016 207.042H525.023M652.858 220.763L655.008 207.042M652.858 220.763L650.561 235.423M652.858 220.763H720M655.008 207.042H720M525.023 207.042H460.031M525.023 207.042L531.073 194.172M720 207.042V220.763M531.073 194.172H468.097M650.561 235.423L648.101 251.122M650.561 235.423H720M720 220.763V235.423M720 235.423V251.122M576.203 251.122L570.922 267.974M576.203 251.122H648.101M576.203 251.122H504.304M648.101 251.122L645.461 267.974M648.101 251.122H720M720 251.122V267.974M570.922 267.974H645.461M570.922 267.974H496.383M642.619 286.11L645.461 267.974M642.619 286.11L639.553 305.685M642.619 286.11H720M645.461 267.974H720M496.383 267.974H421.844M496.383 267.974L504.304 251.122M720 267.974V286.11M504.304 251.122H432.405M639.553 305.685L636.232 326.875M639.553 305.685H720M720 286.11V305.685M720 305.685V326.875M552.465 326.875L545.253 349.889M552.465 326.875H636.232M552.465 326.875H468.696M636.232 326.875L632.626 349.889M636.232 326.875H720M720 326.875V349.889M545.253 349.889H632.626M545.253 349.889H457.879M628.696 374.974L632.626 349.889M628.696 374.974L624.396 402.422M628.696 374.974H720M632.626 349.889H720M457.879 349.889H370.505M457.879 349.889L468.696 326.875M720 349.889V374.974M468.696 326.875H384.929M624.396 402.422L619.67 432.583M624.396 402.422H720M720 374.974V402.422M720 402.422V432.583M519.34 432.583L508.905 465.882M519.34 432.583H619.67M519.34 432.583H419.009M619.67 432.583L614.452 465.882M619.67 432.583H720M720 432.583V465.882M614.452 465.882H508.905M614.452 465.882H720M508.905 465.882H403.358M403.358 465.882H297.81M403.358 465.882L419.009 432.583M419.009 432.583H318.679M503.418 22.6193L501.475 24.6863L499.497 26.7907M503.418 22.6193H539.515M503.418 22.6193H467.322M542.669 18.5936L545.714 14.7062M542.669 18.5936L539.515 22.6193M542.669 18.5936H578.135M545.714 14.7062H580.571M545.714 14.7062L547.93 11.8773L548.657 10.9504M514.388 10.9504H548.657M514.388 10.9504L515.682 9.57443L517.802 7.31897M514.388 10.9504H480.119M539.515 22.6193L536.248 26.7907M539.515 22.6193H575.612M578.135 18.5936L580.571 14.7062M578.135 18.5936L575.612 22.6193M580.571 14.7062L581.759 12.8123L582.636 11.4129L582.925 10.9504M548.657 10.9504H582.925M548.657 10.9504L550.799 8.21514L551.501 7.31897M575.612 22.6193L573.66 25.7335L572.998 26.7907M617.194 10.9504L617.41 10.4893L617.841 9.57443L618.479 8.21514L618.901 7.31897M617.194 10.9504H582.925M582.925 10.9504L583.214 10.4893L583.788 9.57443L585.201 7.31897M499.497 26.7907H536.248M499.497 26.7907H462.746M532.859 31.1159L533.29 30.5665L533.718 30.0192L535.412 27.8567L536.248 26.7907M532.859 31.1159L530.235 34.4653L529.343 35.6034M532.859 31.1159H570.288M536.248 26.7907H572.998M462.746 26.7907H425.996M462.746 26.7907L466.193 23.6478L467.322 22.6193M572.998 26.7907L570.288 31.1159M467.322 22.6193H431.224M529.343 35.6034L528.895 36.1761L528.444 36.7515L527.079 38.4951L526.618 39.0811L525.693 40.2627M529.343 35.6034H567.474M570.288 31.1159L569.941 31.6672L567.474 35.6034M567.474 35.6034L567.116 36.1761L566.755 36.7515L566.393 37.3302L564.555 40.2627M486.832 40.2627L482.281 45.1044M486.832 40.2627H525.693M486.832 40.2627H447.971M525.693 40.2627L521.9 45.1044M525.693 40.2627H564.555M564.555 40.2627L561.52 45.1044M482.281 45.1044H521.9M482.281 45.1044H442.661M517.957 50.1386L521.9 45.1044M517.957 50.1386L513.853 55.3772M517.957 50.1386H558.365M521.9 45.1044H561.52M442.661 45.1044H403.041M442.661 45.1044L447.971 40.2627M561.52 45.1044L558.365 50.1386M447.971 40.2627H409.109M513.853 55.3772L509.579 60.8331M513.853 55.3772H555.082M558.365 50.1386L557.557 51.4284L555.082 55.3772M555.082 55.3772L553.816 57.3968L552.53 59.4478L551.662 60.8331M467.494 60.8331L464.849 63.6466L462.148 66.5202M467.494 60.8331H509.579M467.494 60.8331H425.409M509.579 60.8331L505.123 66.5202M509.579 60.8331H551.662M551.662 60.8331L548.099 66.5202M462.148 66.5202H505.123M462.148 66.5202H419.173M500.476 72.4532L505.123 66.5202M500.476 72.4532L495.622 78.6482M500.476 72.4532H544.38M505.123 66.5202H548.099M419.173 66.5202H376.197M419.173 66.5202L425.409 60.8331M548.099 66.5202L544.38 72.4532M425.409 60.8331H383.326M495.622 78.6482L494.375 80.2401L490.549 85.1239M495.622 78.6482H540.497M544.38 72.4532L540.497 78.6482M540.497 78.6482L540 79.4422L538.491 81.85L536.439 85.1239M444.659 85.1239L438.29 91.8989M444.659 85.1239H490.549M444.659 85.1239H398.769M490.549 85.1239L485.241 91.8989M490.549 85.1239H536.439M536.439 85.1239L532.193 91.8989M438.29 91.8989H485.241M438.29 91.8989H391.338M479.682 98.9948L483.188 94.5213L485.241 91.8989M479.682 98.9948L473.854 106.435M479.682 98.9948H527.746M485.241 91.8989H532.193M391.338 91.8989H344.386M391.338 91.8989L398.769 85.1239M532.193 91.8989L527.746 98.9948M398.769 85.1239H352.878M473.854 106.435L467.735 114.245M473.854 106.435H523.083M527.746 98.9948L523.083 106.435M523.083 106.435L518.188 114.245M417.282 114.245L409.566 122.453M417.282 114.245H467.735M417.282 114.245H366.83M467.735 114.245L461.305 122.453M467.735 114.245H518.188M518.188 114.245L513.044 122.453M409.566 122.453H461.305M409.566 122.453H357.827M454.539 131.09L461.305 122.453M454.539 131.09L447.409 140.192M454.539 131.09H507.631M461.305 122.453H513.044M357.827 122.453H306.089M357.827 122.453L366.83 114.245M513.044 122.453L507.631 131.09M366.83 114.245H316.377M447.409 140.192L439.885 149.796M447.409 140.192H501.927M507.631 131.09L501.927 140.192M501.927 140.192L495.907 149.796M383.862 149.796L374.321 159.945M383.862 149.796H439.885M383.862 149.796H327.838M439.885 149.796L431.934 159.945M439.885 149.796H495.907M495.907 149.796L489.547 159.945M374.321 159.945H431.934M374.321 159.945H316.707M423.518 170.688L431.934 159.945M423.518 170.688L414.597 182.076M423.518 170.688H482.815M431.934 159.945H489.547M316.707 159.945H259.094M316.707 159.945L327.838 149.796M489.547 159.945L482.815 170.688M327.838 149.796H271.816M414.597 182.076L405.121 194.172M414.597 182.076H475.677M482.815 170.688L475.677 182.076M475.677 182.076L468.097 194.172M342.145 194.172L330.047 207.042M342.145 194.172H405.121M342.145 194.172H279.169M405.121 194.172L395.039 207.042M405.121 194.172H468.097M468.097 194.172L460.031 207.042M330.047 207.042H395.039M330.047 207.042H265.054M384.29 220.763L395.039 207.042M384.29 220.763L372.804 235.423M384.29 220.763H451.432M395.039 207.042H460.031M265.054 207.042H200.062M265.054 207.042L279.169 194.172M460.031 207.042L451.432 220.763M279.169 194.172H216.193M372.804 235.423L360.506 251.122M372.804 235.423H442.244M451.432 220.763L442.244 235.423M442.244 235.423L432.405 251.122M288.607 251.122L272.765 267.974M288.607 251.122H360.506M288.607 251.122H216.708M360.506 251.122L347.304 267.974M360.506 251.122H432.405M432.405 251.122L421.844 267.974M272.765 267.974H347.304M272.765 267.974H198.226M333.096 286.11L347.304 267.974M333.096 286.11L317.761 305.685M333.096 286.11H410.477M347.304 267.974H421.844M198.226 267.974H123.687M198.226 267.974L216.708 251.122M421.844 267.974L410.477 286.11M216.708 251.122H144.809M317.761 305.685L301.161 326.875M317.761 305.685H398.209M410.477 286.11L398.209 305.685M398.209 305.685L384.929 326.875M217.393 326.875L195.758 349.889M217.393 326.875H301.161M217.393 326.875H133.625M301.161 326.875L283.132 349.889M301.161 326.875H384.929M384.929 326.875L370.505 349.889M195.758 349.889H283.132M195.758 349.889H108.384M263.48 374.974L283.132 349.889M263.48 374.974L241.977 402.422M263.48 374.974H354.784M283.132 349.889H370.505M108.384 349.889H21.0104M108.384 349.889L133.625 326.875M370.505 349.889L354.784 374.974M133.625 326.875H49.8579M241.977 402.422L218.349 432.583M241.977 402.422H337.582M354.784 374.974L337.582 402.422M337.582 402.422L318.679 432.583M118.019 432.583L86.7156 465.882M118.019 432.583H218.349M118.019 432.583H17.6882M218.349 432.583L192.263 465.882M218.349 432.583H318.679M318.679 432.583L297.81 465.882M192.263 465.882H86.7156M192.263 465.882H297.81M86.7156 465.882L0.387546 465.881M17.6882 432.583L0.387546 448.358M17.6882 432.583H0.387546M359.03 22.6193L352.495 26.7907M359.03 22.6193H395.127M359.03 22.6193H322.934M400.804 18.5936L406.286 14.7062M400.804 18.5936L395.127 22.6193M400.804 18.5936H436.27M406.286 14.7062H441.143M406.286 14.7062L411.582 10.9504M377.313 10.9504H411.582M377.313 10.9504L379.47 9.57443L383.003 7.31897M377.313 10.9504H343.045M395.127 22.6193L389.245 26.7907M395.127 22.6193H431.224M436.27 18.5936L441.143 14.7062M436.27 18.5936L431.224 22.6193M441.143 14.7062L444.689 11.8773L445.851 10.9504M411.582 10.9504L412.232 10.4893L416.703 7.31897M411.582 10.9504H445.851M431.224 22.6193L425.996 26.7907M480.119 10.9504L484.102 7.31897M480.119 10.9504H445.851M445.851 10.9504L447.576 9.57443L450.403 7.31897M352.495 26.7907H389.245M352.495 26.7907H315.744M383.146 31.1159L389.245 26.7907M383.146 31.1159L376.818 35.6034M383.146 31.1159H420.575M389.245 26.7907H425.996M315.744 26.7907H278.994M315.744 26.7907L322.934 22.6193M425.996 26.7907L420.575 31.1159M322.934 22.6193H286.837M376.818 35.6034L375.198 36.7515L370.247 40.2627M376.818 35.6034H414.95M420.575 31.1159L414.95 35.6034M414.95 35.6034L409.109 40.2627M331.386 40.2627L330.454 40.8581L323.801 45.1044M331.386 40.2627H370.247M331.386 40.2627H292.525M370.247 40.2627L363.421 45.1044M370.247 40.2627H409.109M409.109 40.2627L408.364 40.8581L403.041 45.1044M323.801 45.1044H363.421M323.801 45.1044H284.181M356.322 50.1386L363.421 45.1044M356.322 50.1386L348.935 55.3772M356.322 50.1386H396.731M363.421 45.1044H403.041M284.181 45.1044H244.561M284.181 45.1044L292.525 40.2627M403.041 45.1044L396.731 50.1386M292.525 40.2627H253.663M348.935 55.3772L341.241 60.8331M348.935 55.3772H390.164M396.731 50.1386L390.164 55.3772M390.164 55.3772L383.326 60.8331M299.157 60.8331L290.247 66.5202M299.157 60.8331H341.241M299.157 60.8331H257.073M341.241 60.8331L333.222 66.5202M341.241 60.8331H383.326M383.326 60.8331L376.197 66.5202M290.247 66.5202H333.222M290.247 66.5202H247.271M324.856 72.4532L333.222 66.5202M324.856 72.4532L316.119 78.6482M324.856 72.4532H368.76M333.222 66.5202H376.197M247.271 66.5202H204.296M247.271 66.5202L257.073 60.8331M376.197 66.5202L368.76 72.4532M257.073 60.8331H214.988M316.119 78.6482L306.988 85.1239M316.119 78.6482H360.995M368.76 72.4532L360.995 78.6482M360.995 78.6482L352.878 85.1239M261.098 85.1239L250.483 91.8989M261.098 85.1239H306.988M261.098 85.1239H215.208M306.988 85.1239L297.435 91.8989M306.988 85.1239H352.878M352.878 85.1239L344.386 91.8989M250.483 91.8989H297.435M250.483 91.8989H203.531M287.428 98.9948L297.435 91.8989M287.428 98.9948L276.937 106.435M287.428 98.9948H335.492M297.435 91.8989H344.386M203.531 91.8989H156.579M203.531 91.8989L215.208 85.1239M344.386 91.8989L335.492 98.9948M215.208 85.1239H169.317M276.937 106.435L265.924 114.245M276.937 106.435H326.166M335.492 98.9948L326.166 106.435M326.166 106.435L316.377 114.245M215.471 114.245L202.611 122.453M215.471 114.245H265.924M215.471 114.245H165.018M265.924 114.245L254.349 122.453M265.924 114.245H316.377M316.377 114.245L306.089 122.453M202.611 122.453H254.349M202.611 122.453H150.871M242.169 131.09L254.349 122.453M242.169 131.09L229.335 140.192M242.169 131.09H295.262M254.349 122.453H306.089M150.871 122.453H99.1326M150.871 122.453L165.018 114.245M306.089 122.453L295.262 131.09M165.018 114.245H114.565M229.335 140.192L215.792 149.796M229.335 140.192H283.853M295.262 131.09L283.853 140.192M283.853 140.192L271.816 149.796M159.769 149.796L143.868 159.945M159.769 149.796H215.792M159.769 149.796H103.746M215.792 149.796L201.481 159.945M215.792 149.796H271.816M271.816 149.796L259.094 159.945M143.868 159.945H201.481M143.868 159.945H86.2546M186.333 170.688L201.481 159.945M186.333 170.688L170.274 182.076M186.333 170.688H245.629M201.481 159.945H259.094M86.2546 159.945H28.6413M86.2546 159.945L103.746 149.796M259.094 159.945L245.629 170.688M103.746 149.796H47.7231M170.274 182.076L153.217 194.172M170.274 182.076H231.355M245.629 170.688L231.355 182.076M231.355 182.076L216.193 194.172M90.2417 194.172L70.0775 207.042M90.2417 194.172H153.217M90.2417 194.172H27.2658M153.217 194.172L135.07 207.042M153.217 194.172H216.193M216.193 194.172L200.062 207.042M70.0775 207.042H135.07M70.0775 207.042H5.08526M115.72 220.763L135.07 207.042M115.72 220.763L95.0481 235.423M115.72 220.763H182.863M135.07 207.042H200.062M5.08526 207.042L27.2658 194.172M5.08526 207.042H0.387546M5.08526 207.042L0.387546 209.767M200.062 207.042L182.863 220.763M27.2658 194.172H0.387546M95.0481 235.423L72.911 251.122M95.0481 235.423H164.487M182.863 220.763L164.487 235.423M164.487 235.423L144.809 251.122M1.01196 251.122H72.911M1.01196 251.122H0.387546M1.01196 251.122L0.387546 251.52M72.911 251.122L49.1473 267.974M72.911 251.122H144.809M144.809 251.122L123.687 267.974M23.5726 286.11L49.1473 267.974M23.5726 286.11H100.953M23.5726 286.11H0.387546M23.5726 286.11L0.387546 302.552M49.1473 267.974H123.687M49.1473 267.974H0.387546M123.687 267.974L100.953 286.11M100.953 286.11L76.4183 305.685M76.4183 305.685L49.8579 326.875M76.4183 305.685H0.387546M49.8579 326.875L21.0104 349.889M49.8579 326.875H0.387546M21.0104 349.889H0.387546M21.0104 349.889L0.387546 366.342M214.642 22.6193L205.493 26.7907M214.642 22.6193H250.74M214.642 22.6193H178.546M258.939 18.5936L266.857 14.7062M258.939 18.5936L250.74 22.6193M258.939 18.5936H294.405M266.857 14.7062H301.714M266.857 14.7062L274.507 10.9504M240.239 10.9504H274.507M240.239 10.9504L248.204 7.31897M240.239 10.9504H205.97M250.74 22.6193L242.243 26.7907M250.74 22.6193H286.837M294.405 18.5936L301.714 14.7062M294.405 18.5936L286.837 22.6193M301.714 14.7062L308.776 10.9504M274.507 10.9504L275.445 10.4893L281.904 7.31897M274.507 10.9504H308.776M286.837 22.6193L278.994 26.7907M343.045 10.9504L349.303 7.31897M343.045 10.9504H308.776M308.776 10.9504L309.642 10.4893L315.603 7.31897M205.493 26.7907H242.243M205.493 26.7907H168.742M233.433 31.1159L242.243 26.7907M233.433 31.1159L224.293 35.6034M233.433 31.1159H270.862M242.243 26.7907H278.994M168.742 26.7907H131.992M168.742 26.7907L178.546 22.6193M278.994 26.7907L270.862 31.1159M178.546 22.6193H142.449M224.293 35.6034L214.802 40.2627M224.293 35.6034H262.424M270.862 31.1159L269.824 31.6672L262.424 35.6034M262.424 35.6034L253.663 40.2627M175.941 40.2627L165.321 45.1044M175.941 40.2627H214.802M175.941 40.2627H137.079M214.802 40.2627L204.941 45.1044M214.802 40.2627H253.663M253.663 40.2627L244.561 45.1044M165.321 45.1044H204.941M165.321 45.1044H125.701M194.687 50.1386L204.941 45.1044M194.687 50.1386L184.017 55.3772M194.687 50.1386H235.096M204.941 45.1044H244.561M125.701 45.1044H86.0814M125.701 45.1044L137.079 40.2627M244.561 45.1044L235.096 50.1386M137.079 40.2627H98.2181M184.017 55.3772L172.904 60.8331M184.017 55.3772H225.246M235.096 50.1386L225.246 55.3772M225.246 55.3772L214.988 60.8331M130.82 60.8331L118.345 66.5202M130.82 60.8331H172.904M130.82 60.8331H88.735M172.904 60.8331L161.321 66.5202M172.904 60.8331H214.988M214.988 60.8331L204.296 66.5202M118.345 66.5202H161.321M118.345 66.5202H75.3697M149.236 72.4532L161.321 66.5202M149.236 72.4532L136.617 78.6482M149.236 72.4532H193.141M161.321 66.5202H204.296M75.3697 66.5202H32.3946M75.3697 66.5202L88.735 60.8331M204.296 66.5202L193.141 72.4532M88.735 60.8331H46.6511M136.617 78.6482L123.427 85.1239M136.617 78.6482H181.492M193.141 72.4532L181.492 78.6482M181.492 78.6482L169.317 85.1239M77.5368 85.1239L62.676 91.8989M77.5368 85.1239H123.427M77.5368 85.1239H31.6472M123.427 85.1239L109.628 91.8989M123.427 85.1239H169.317M169.317 85.1239L156.579 91.8989M62.676 91.8989H109.628M95.174 98.9948L109.628 91.8989M95.174 98.9948L80.0202 106.435M95.174 98.9948H143.238M109.628 91.8989H156.579M156.579 91.8989L143.238 98.9948M31.6472 85.1239H0.387546M80.0202 106.435L64.1122 114.245M80.0202 106.435H129.249M143.238 98.9948L129.249 106.435M129.249 106.435L114.565 114.245M13.6591 114.245H64.1122M13.6591 114.245H0.387546M13.6591 114.245L0.387546 120.295M64.1122 114.245L47.3932 122.453M64.1122 114.245H114.565M114.565 114.245L99.1326 122.453M29.8002 131.09L47.3932 122.453M29.8002 131.09L11.2619 140.192M29.8002 131.09H82.8926M29.8002 131.09H0.387546M47.3932 122.453H99.1326M47.3932 122.453H0.387546M99.1326 122.453L82.8926 131.09M0.241375 120.362L0.387546 120.295M11.2619 140.192H65.7801M11.2619 140.192H0.387546M11.2619 140.192L0.387546 145.531M82.8926 131.09L65.7801 140.192M65.7801 140.192L47.7231 149.796M47.7231 149.796L28.6413 159.945M47.7231 149.796H0.387546M8.44421 170.688L28.6413 159.945M8.44421 170.688H0.387546M8.44421 170.688L0.387546 174.972M28.6413 159.945H0.387546M70.2552 22.6193L58.491 26.7907M70.2552 22.6193H106.352M70.2552 22.6193H34.1576M117.074 18.5936L127.428 14.7062M117.074 18.5936L106.352 22.6193M117.074 18.5936H152.541M127.428 14.7062H162.285M127.428 14.7062L137.433 10.9504M103.164 10.9504H137.433M103.164 10.9504L113.405 7.31897M103.164 10.9504H68.8954M106.352 22.6193L95.2415 26.7907M106.352 22.6193H142.449M152.541 18.5936L162.285 14.7062M152.541 18.5936L142.449 22.6193M162.285 14.7062L171.701 10.9504M137.433 10.9504H171.701M137.433 10.9504L147.105 7.31897M142.449 22.6193L131.992 26.7907M205.97 10.9504L214.504 7.31897M205.97 10.9504H171.701M171.701 10.9504L180.805 7.31897M58.491 26.7907H95.2415M58.491 26.7907H21.7405M83.7209 31.1159L95.2415 26.7907M83.7209 31.1159L71.7679 35.6034M83.7209 31.1159H121.149M95.2415 26.7907H131.992M21.7405 26.7907L34.1576 22.6193M21.7405 26.7907H0.387546M131.992 26.7907L121.149 31.1159M34.1576 22.6193H0.387546M71.7679 35.6034L59.3568 40.2627M71.7679 35.6034H109.899M121.149 31.1159L109.899 35.6034M109.899 35.6034L98.2181 40.2627M20.4955 40.2627L6.84157 45.1044M20.4955 40.2627H59.3568M20.4955 40.2627H0.387546M59.3568 40.2627L46.4615 45.1044M59.3568 40.2627H98.2181M98.2181 40.2627L86.0814 45.1044M33.0527 50.1386L46.4615 45.1044M33.0527 50.1386L19.099 55.3772M33.0527 50.1386H73.4612M33.0527 50.1386H0.387546M46.4615 45.1044H6.84157M46.4615 45.1044H86.0814M6.84157 45.1044L0.387546 47.3926M6.84157 45.1044H0.387546M86.0814 45.1044L73.4612 50.1386M19.099 55.3772L4.56654 60.8331M19.099 55.3772H60.3283M19.099 55.3772H0.387546M73.4612 50.1386L60.3283 55.3772M60.3283 55.3772L46.6511 60.8331M4.56654 60.8331H46.6511M4.56654 60.8331L0.387546 62.4018M4.56654 60.8331H0.387546M46.6511 60.8331L32.3946 66.5202M17.5211 72.4532L32.3946 66.5202M17.5211 72.4532L1.99018 78.6482M17.5211 72.4532H0.387546M32.3946 66.5202H0.387546M0.162665 66.5202H0.387546M1.99018 78.6482H0.387546M1.99018 78.6482L0.387546 79.2876M0 79.4422L0.387546 79.2876M10.6758 18.5936L22.8567 14.7062M10.6758 18.5936H0.387546M10.6758 18.5936L0.387546 21.8765M22.8567 14.7062L34.6269 10.9504M22.8567 14.7062H0.387546M68.8954 10.9504L79.7053 7.31897M68.8954 10.9504H34.6269M34.6269 10.9504L46.0057 7.31897M34.6269 10.9504H0.387546M1191.8 7.31897H1225.5M1191.8 7.31897H1158.1M1217.24 3.80647L1219.28 4.6739L1225.5 7.31897M1217.24 3.80647H1250.39M1225.5 7.31897H1259.2M1250.39 3.80647L1252.56 4.6739L1253.66 5.10963L1259.2 7.31897M1259.2 7.31897H1292.89M1292.89 7.31897H1326.6M1158.1 7.31897H1124.4M1326.6 7.31897H1360.29M1360.29 7.31897L1349.84 3.80647M1360.29 7.31897H1393.99M1349.84 3.80647H1382.99M1057 7.31897H1090.7M1057 7.31897H1023.3M1084.64 3.80647L1086.14 4.6739L1086.89 5.10963L1090.7 7.31897M1084.64 3.80647H1117.79M1090.7 7.31897H1124.4M1117.79 3.80647L1124.4 7.31897M1023.3 7.31897H989.598M922.198 7.31897H955.898M922.198 7.31897H888.499M952.045 3.80647L952.52 4.23885L952.996 4.6739L953.475 5.10963L955.898 7.31897M952.045 3.80647H985.194M955.898 7.31897H989.598M985.194 3.80647L989.598 7.31897M888.499 7.31897H854.798M787.399 7.31897H821.099M787.399 7.31897H753.7M819.448 3.80647L821.099 7.31897M819.448 3.80647H852.598M821.099 7.31897H854.798M852.598 3.80647L852.869 4.23885L853.141 4.6739L853.415 5.10963L854.798 7.31897M753.7 7.31897H720M652.601 7.31897H686.3M652.601 7.31897H618.901M686.851 3.80647L686.3 7.31897M686.851 3.80647H720M686.3 7.31897H720M720 3.80647V7.31897M618.901 7.31897H585.201M517.802 7.31897H551.501M517.802 7.31897H484.102M554.253 3.80647L553.574 4.6739L552.198 6.42949L551.501 7.31897M554.253 3.80647H587.402M551.501 7.31897H585.201M587.402 3.80647L587.131 4.23885L586.859 4.6739L586.585 5.10963L585.201 7.31897M484.102 7.31897H450.403M383.003 7.31897H416.703M383.003 7.31897H349.303M421.656 3.80647L420.433 4.6739L419.817 5.10963L416.703 7.31897M421.656 3.80647H454.806M416.703 7.31897H450.403M454.806 3.80647L454.263 4.23885L450.403 7.31897M349.303 7.31897H315.603M248.204 7.31897H281.904M248.204 7.31897H214.504M289.059 3.80647L287.292 4.6739L286.403 5.10963L281.904 7.31897M289.059 3.80647H322.208M281.904 7.31897H315.603M322.208 3.80647L321.394 4.23885L315.603 7.31897M214.504 7.31897H180.805M113.405 7.31897H147.105M113.405 7.31897H79.7053M156.461 3.80647L147.105 7.31897M156.461 3.80647H189.61M147.105 7.31897H180.805M189.61 3.80647L187.437 4.6739L186.342 5.10963L180.805 7.31897M79.7053 7.31897H46.0057M23.8641 3.80647L12.3061 7.31897M23.8641 3.80647H57.0136M23.8641 3.80647H0.387546M12.3061 7.31897H46.0057M12.3061 7.31897L0.387546 10.9415M12.3061 7.31897H0.387546M57.0136 3.80647L54.2955 4.6739L46.0057 7.31897M1382.99 3.80647L1385.7 4.6739L1393.99 7.31897M1393.99 7.31897H1427.69M1427.69 7.31897L1439.61 10.9415M1427.69 7.31897H1439.61M1439.61 174.972V170.688M1439.61 174.972V182.076M1439.61 170.688V159.945M1439.61 182.076V184.199V194.172M1439.61 194.172V207.042M1439.61 91.8989V85.1239M1439.61 91.8989V98.4245M1439.61 3.80647V7.31897M1439.61 7.31897V10.9415M1439.61 10.9415L1439.64 10.9504H1439.61M1439.61 10.9415V10.9504M1439.61 10.9504V14.7062M1439.61 14.7062V18.5936M1439.61 18.5936V21.8765M1439.61 21.8765V22.6193M1439.61 22.6193V26.7907M1439.61 26.7907V31.1159M1439.61 31.1159V33.9628M1439.61 33.9628V35.6034M1439.61 35.6034V40.2627M1439.61 40.2627V45.1044M1439.61 45.1044V47.3926M1439.61 47.3926V50.1386M1439.61 50.1386V55.3772M1439.61 55.3772V60.8331M1439.61 60.8331V62.4018M1439.61 62.4018V66.5202M1439.61 66.5202V72.4532M1439.61 72.4532V78.6482M1439.61 78.6482V79.2876M1439.61 79.2876V85.1239M1439.61 98.9948V106.435M1439.61 98.9948V98.4245M1439.61 106.435V114.245M1439.61 114.245V120.295M1439.61 120.295V122.453M1439.61 122.453V131.09M1439.61 131.09V140.192M1439.61 140.192V145.531M1439.61 145.531V149.796M1439.61 149.796V159.945M1439.61 207.042V209.767M1439.61 209.767V220.763M1439.61 220.763V235.423M1439.61 235.423V251.122M1439.61 251.122V251.52M1439.61 251.52V267.974M1439.61 267.974V286.11M1439.61 286.11V302.552M1439.61 302.552V305.685M1439.61 305.685V326.875M1439.61 326.875V349.889M1439.61 349.889V366.342M1439.61 366.342V374.974M1439.61 374.974V402.422M1439.61 402.422V432.583M1439.61 432.583V448.358M1439.61 448.358V465.881M1439.61 465.881V466H0.387546V465.881M0.387546 98.9948V106.435M0.387546 98.9948V98.4245M0.387546 98.4245V91.8989M0.387546 91.8989V85.1239M0.387546 85.1239V79.2876M0.387546 79.2876V78.6482M0.387546 78.6482V72.4532M0.387546 72.4532V66.5202M0.387546 66.5202V62.4018M0.387546 62.4018V60.8331M0.387546 60.8331V55.3772M0.387546 55.3772V50.1386M0.387546 50.1386V47.3926M0.387546 47.3926V45.1044M0.387546 45.1044V40.2627M0.387546 40.2627V35.6034M0.387546 35.6034V33.9628M0.387546 33.9628V31.1159M0.387546 31.1159V26.7907M0.387546 26.7907V22.6193M0.387546 22.6193V21.8765M0.387546 21.8765V18.5936M0.387546 18.5936V14.7062M0.387546 14.7062V10.9504M0.387546 10.9504H0.35831L0.387546 10.9415M0.387546 10.9504V10.9415M0.387546 10.9415V7.31897M0.387546 7.31897V3.80647M0.387546 465.881V448.358M0.387546 448.358V432.583M0.387546 432.583V402.422M0.387546 402.422V374.974M0.387546 374.974V366.342M0.387546 366.342V349.889M0.387546 349.889V326.875M0.387546 326.875V305.685M0.387546 305.685V302.552M0.387546 302.552V286.11M0.387546 286.11V267.974M0.387546 267.974V251.52M0.387546 251.52V251.122M0.387546 251.122V235.423M0.387546 235.423V220.763M0.387546 220.763V209.767M0.387546 209.767V207.042M0.387546 207.042V194.172M0.387546 194.172V182.076M0.387546 182.076V174.972M0.387546 174.972V170.688M0.387546 170.688V159.945M0.387546 159.945V149.796M0.387546 149.796V145.531M0.387546 145.531V140.192M0.387546 140.192V131.09M0.387546 131.09V122.453M0.387546 122.453V120.295M0.387546 120.295V114.245M0.387546 114.245V106.435" stroke="url(#paint0_diamond_27_4)" stroke-opacity="0.5" stroke-width="0.635087" stroke-miterlimit="10" stroke-linecap="round" stroke-linejoin="round"/>
<defs>
<radialGradient id="paint0_diamond_27_4" cx="0" cy="0" r="1" gradientUnits="userSpaceOnUse" gradientTransform="translate(720 0.40625) rotate(90) scale(465.594 3946.47)">
<stop stop-color="white"/>
<stop offset="0.505" stop-color="#3889F2" stop-opacity="0.5"/>
<stop offset="1" stop-color="white"/>
</radialGradient>
</defs>
</svg>
